<mxfile host="app.diagrams.net" modified="2023-09-22T10:47:55.564Z" agent="Mozilla/5.0 (Windows NT 10.0; Win64; x64; rv:109.0) Gecko/20100101 Firefox/117.0" etag="Jzf1Wdfbo7MuW1kt5MrD" version="21.8.0" type="google" pages="3">
  <diagram name="MVP1" id="PxIMgPHM-7O-8G7iIPdK">
    <mxGraphModel dx="2056" dy="1121" grid="1" gridSize="10" guides="1" tooltips="1" connect="1" arrows="1" fold="1" page="1" pageScale="1" pageWidth="827" pageHeight="1169" math="0" shadow="0">
      <root>
        <mxCell id="0" />
        <mxCell id="1" parent="0" />
        <mxCell id="EZFzOiasrliSu7hldwHc-1" value="&lt;div&gt;Weather App MVP1&lt;/div&gt;&lt;div&gt;Requirements:&lt;/div&gt;&lt;div&gt;&lt;br&gt;&lt;/div&gt;&lt;div&gt;A functioning fetch to get the weather data&lt;/div&gt;&lt;div&gt;Display our data on the page&lt;br&gt;&lt;/div&gt;" style="rounded=0;whiteSpace=wrap;html=1;" vertex="1" parent="1">
          <mxGeometry x="40" y="20" width="290" height="150" as="geometry" />
        </mxCell>
        <mxCell id="A7AKLIVmACF5ZmbXrQC7-6" style="edgeStyle=orthogonalEdgeStyle;rounded=0;orthogonalLoop=1;jettySize=auto;html=1;exitX=0.5;exitY=1;exitDx=0;exitDy=0;entryX=0.5;entryY=0;entryDx=0;entryDy=0;" edge="1" parent="1" source="A7AKLIVmACF5ZmbXrQC7-1" target="A7AKLIVmACF5ZmbXrQC7-2">
          <mxGeometry relative="1" as="geometry" />
        </mxCell>
        <mxCell id="A7AKLIVmACF5ZmbXrQC7-1" value="User loads page" style="rounded=0;whiteSpace=wrap;html=1;fontStyle=1" vertex="1" parent="1">
          <mxGeometry x="400" y="80" width="120" height="60" as="geometry" />
        </mxCell>
        <mxCell id="A7AKLIVmACF5ZmbXrQC7-32" style="edgeStyle=orthogonalEdgeStyle;rounded=0;orthogonalLoop=1;jettySize=auto;html=1;exitX=0.5;exitY=1;exitDx=0;exitDy=0;entryX=0;entryY=0.5;entryDx=0;entryDy=0;" edge="1" parent="1" source="A7AKLIVmACF5ZmbXrQC7-2" target="A7AKLIVmACF5ZmbXrQC7-10">
          <mxGeometry relative="1" as="geometry" />
        </mxCell>
        <mxCell id="A7AKLIVmACF5ZmbXrQC7-2" value="&lt;div&gt;Event Listener for Page Load fires&lt;/div&gt;" style="rounded=0;whiteSpace=wrap;html=1;fontStyle=1" vertex="1" parent="1">
          <mxGeometry x="400" y="190" width="120" height="60" as="geometry" />
        </mxCell>
        <mxCell id="A7AKLIVmACF5ZmbXrQC7-28" style="edgeStyle=orthogonalEdgeStyle;rounded=0;orthogonalLoop=1;jettySize=auto;html=1;exitX=0.5;exitY=1;exitDx=0;exitDy=0;entryX=0;entryY=0.5;entryDx=0;entryDy=0;" edge="1" parent="1" source="A7AKLIVmACF5ZmbXrQC7-3" target="A7AKLIVmACF5ZmbXrQC7-13">
          <mxGeometry relative="1" as="geometry" />
        </mxCell>
        <mxCell id="A7AKLIVmACF5ZmbXrQC7-3" value="Fetch weather data" style="rounded=0;whiteSpace=wrap;html=1;fontStyle=1" vertex="1" parent="1">
          <mxGeometry x="400" y="440" width="120" height="60" as="geometry" />
        </mxCell>
        <mxCell id="A7AKLIVmACF5ZmbXrQC7-30" style="edgeStyle=orthogonalEdgeStyle;rounded=0;orthogonalLoop=1;jettySize=auto;html=1;exitX=0.5;exitY=1;exitDx=0;exitDy=0;entryX=0;entryY=0.5;entryDx=0;entryDy=0;" edge="1" parent="1" source="A7AKLIVmACF5ZmbXrQC7-4" target="A7AKLIVmACF5ZmbXrQC7-21">
          <mxGeometry relative="1" as="geometry" />
        </mxCell>
        <mxCell id="A7AKLIVmACF5ZmbXrQC7-4" value="Pass weather data to our web page" style="rounded=0;whiteSpace=wrap;html=1;fontStyle=1" vertex="1" parent="1">
          <mxGeometry x="400" y="720" width="120" height="60" as="geometry" />
        </mxCell>
        <mxCell id="A7AKLIVmACF5ZmbXrQC7-5" value="Show weather data on page" style="rounded=0;whiteSpace=wrap;html=1;fontStyle=1" vertex="1" parent="1">
          <mxGeometry x="410" y="960" width="120" height="60" as="geometry" />
        </mxCell>
        <mxCell id="A7AKLIVmACF5ZmbXrQC7-27" style="edgeStyle=orthogonalEdgeStyle;rounded=0;orthogonalLoop=1;jettySize=auto;html=1;exitX=0.5;exitY=1;exitDx=0;exitDy=0;entryX=1;entryY=0.5;entryDx=0;entryDy=0;" edge="1" parent="1" source="A7AKLIVmACF5ZmbXrQC7-10" target="A7AKLIVmACF5ZmbXrQC7-3">
          <mxGeometry relative="1" as="geometry" />
        </mxCell>
        <mxCell id="A7AKLIVmACF5ZmbXrQC7-10" value="addEventListener(&quot;load&quot;, function1)" style="rounded=0;whiteSpace=wrap;html=1;" vertex="1" parent="1">
          <mxGeometry x="500" y="320" width="230" height="60" as="geometry" />
        </mxCell>
        <mxCell id="A7AKLIVmACF5ZmbXrQC7-29" style="edgeStyle=orthogonalEdgeStyle;rounded=0;orthogonalLoop=1;jettySize=auto;html=1;exitX=0.5;exitY=1;exitDx=0;exitDy=0;entryX=1;entryY=0.5;entryDx=0;entryDy=0;" edge="1" parent="1" source="A7AKLIVmACF5ZmbXrQC7-13" target="A7AKLIVmACF5ZmbXrQC7-4">
          <mxGeometry relative="1" as="geometry" />
        </mxCell>
        <mxCell id="A7AKLIVmACF5ZmbXrQC7-13" value="&lt;div&gt;function1 to retrieve promise of weather data, with a hard-coded API address&lt;/div&gt;&lt;div&gt;calls function2 for now&lt;br&gt;&lt;/div&gt;" style="rounded=0;whiteSpace=wrap;html=1;" vertex="1" parent="1">
          <mxGeometry x="500" y="580" width="230" height="60" as="geometry" />
        </mxCell>
        <mxCell id="A7AKLIVmACF5ZmbXrQC7-31" style="edgeStyle=orthogonalEdgeStyle;rounded=0;orthogonalLoop=1;jettySize=auto;html=1;exitX=0.5;exitY=1;exitDx=0;exitDy=0;entryX=1;entryY=0.5;entryDx=0;entryDy=0;" edge="1" parent="1" source="A7AKLIVmACF5ZmbXrQC7-21" target="A7AKLIVmACF5ZmbXrQC7-5">
          <mxGeometry relative="1" as="geometry" />
        </mxCell>
        <mxCell id="A7AKLIVmACF5ZmbXrQC7-21" value="function2 assign weatherData.data to new Elements, and appendChild()" style="rounded=0;whiteSpace=wrap;html=1;" vertex="1" parent="1">
          <mxGeometry x="500" y="840" width="230" height="60" as="geometry" />
        </mxCell>
      </root>
    </mxGraphModel>
  </diagram>
  <diagram name="MVP2" id="2AIUrRpIhojmEgaaoCzC">
    <mxGraphModel grid="1" page="1" gridSize="10" guides="1" tooltips="1" connect="1" arrows="1" fold="1" pageScale="1" pageWidth="827" pageHeight="1169" math="0" shadow="0">
      <root>
        <mxCell id="WqsBDW30Ayv6GjO0dKQB-0" />
        <mxCell id="WqsBDW30Ayv6GjO0dKQB-1" parent="WqsBDW30Ayv6GjO0dKQB-0" />
        <mxCell id="WqsBDW30Ayv6GjO0dKQB-2" value="&lt;div&gt;Weather App MVP2&lt;/div&gt;&lt;div&gt;Requirements:&lt;/div&gt;&lt;div&gt;&lt;br&gt;&lt;/div&gt;&lt;div&gt;Create a more functional UI that allows users to choose which data they want to display&lt;/div&gt;&lt;div&gt;Dynamically add or remove content&lt;/div&gt;" style="rounded=0;whiteSpace=wrap;html=1;" vertex="1" parent="WqsBDW30Ayv6GjO0dKQB-1">
          <mxGeometry x="40" y="20" width="290" height="150" as="geometry" />
        </mxCell>
        <mxCell id="Hj8excbB3V_5zjSicVvi-0" style="edgeStyle=orthogonalEdgeStyle;rounded=0;orthogonalLoop=1;jettySize=auto;html=1;exitX=0.5;exitY=1;exitDx=0;exitDy=0;entryX=0.5;entryY=0;entryDx=0;entryDy=0;fillColor=#f8cecc;strokeColor=#b85450;" edge="1" parent="WqsBDW30Ayv6GjO0dKQB-1" source="Hj8excbB3V_5zjSicVvi-1" target="Hj8excbB3V_5zjSicVvi-3">
          <mxGeometry relative="1" as="geometry" />
        </mxCell>
        <mxCell id="Hj8excbB3V_5zjSicVvi-16" style="edgeStyle=orthogonalEdgeStyle;rounded=0;orthogonalLoop=1;jettySize=auto;html=1;exitX=0.5;exitY=1;exitDx=0;exitDy=0;entryX=0.5;entryY=0;entryDx=0;entryDy=0;fillColor=#d5e8d4;strokeColor=#82b366;" edge="1" parent="WqsBDW30Ayv6GjO0dKQB-1" source="Hj8excbB3V_5zjSicVvi-1" target="Hj8excbB3V_5zjSicVvi-15">
          <mxGeometry relative="1" as="geometry" />
        </mxCell>
        <mxCell id="Hj8excbB3V_5zjSicVvi-1" value="User loads page" style="rounded=0;whiteSpace=wrap;html=1;fontStyle=1" vertex="1" parent="WqsBDW30Ayv6GjO0dKQB-1">
          <mxGeometry x="400" y="80" width="120" height="60" as="geometry" />
        </mxCell>
        <mxCell id="Hj8excbB3V_5zjSicVvi-2" style="edgeStyle=orthogonalEdgeStyle;rounded=0;orthogonalLoop=1;jettySize=auto;html=1;exitX=0.5;exitY=1;exitDx=0;exitDy=0;entryX=0;entryY=0.5;entryDx=0;entryDy=0;fillColor=#f8cecc;strokeColor=#b85450;" edge="1" parent="WqsBDW30Ayv6GjO0dKQB-1" source="Hj8excbB3V_5zjSicVvi-3" target="Hj8excbB3V_5zjSicVvi-10">
          <mxGeometry relative="1" as="geometry" />
        </mxCell>
        <mxCell id="Hj8excbB3V_5zjSicVvi-3" value="&lt;div&gt;Event Listener for Page Load fires&lt;/div&gt;" style="rounded=0;whiteSpace=wrap;html=1;fontStyle=1;fillColor=#f8cecc;strokeColor=#b85450;" vertex="1" parent="WqsBDW30Ayv6GjO0dKQB-1">
          <mxGeometry x="260" y="220" width="120" height="60" as="geometry" />
        </mxCell>
        <mxCell id="Hj8excbB3V_5zjSicVvi-4" style="edgeStyle=orthogonalEdgeStyle;rounded=0;orthogonalLoop=1;jettySize=auto;html=1;exitX=0.5;exitY=1;exitDx=0;exitDy=0;entryX=0;entryY=0.5;entryDx=0;entryDy=0;" edge="1" parent="WqsBDW30Ayv6GjO0dKQB-1" source="Hj8excbB3V_5zjSicVvi-5" target="Hj8excbB3V_5zjSicVvi-12">
          <mxGeometry relative="1" as="geometry" />
        </mxCell>
        <mxCell id="Hj8excbB3V_5zjSicVvi-5" value="Fetch weather data" style="rounded=0;whiteSpace=wrap;html=1;fontStyle=1" vertex="1" parent="WqsBDW30Ayv6GjO0dKQB-1">
          <mxGeometry x="400" y="440" width="120" height="60" as="geometry" />
        </mxCell>
        <mxCell id="Hj8excbB3V_5zjSicVvi-6" style="edgeStyle=orthogonalEdgeStyle;rounded=0;orthogonalLoop=1;jettySize=auto;html=1;exitX=0.5;exitY=1;exitDx=0;exitDy=0;entryX=0;entryY=0.5;entryDx=0;entryDy=0;" edge="1" parent="WqsBDW30Ayv6GjO0dKQB-1" source="Hj8excbB3V_5zjSicVvi-7" target="Hj8excbB3V_5zjSicVvi-14">
          <mxGeometry relative="1" as="geometry" />
        </mxCell>
        <mxCell id="Hj8excbB3V_5zjSicVvi-7" value="Pass weather data to our web page" style="rounded=0;whiteSpace=wrap;html=1;fontStyle=1" vertex="1" parent="WqsBDW30Ayv6GjO0dKQB-1">
          <mxGeometry x="400" y="720" width="120" height="60" as="geometry" />
        </mxCell>
        <mxCell id="Hj8excbB3V_5zjSicVvi-8" value="Show weather data on page" style="rounded=0;whiteSpace=wrap;html=1;fontStyle=1;fillColor=#ffe6cc;strokeColor=#d79b00;" vertex="1" parent="WqsBDW30Ayv6GjO0dKQB-1">
          <mxGeometry x="414" y="1080" width="120" height="60" as="geometry" />
        </mxCell>
        <mxCell id="Hj8excbB3V_5zjSicVvi-9" style="edgeStyle=orthogonalEdgeStyle;rounded=0;orthogonalLoop=1;jettySize=auto;html=1;exitX=0.5;exitY=1;exitDx=0;exitDy=0;entryX=1;entryY=0.5;entryDx=0;entryDy=0;" edge="1" parent="WqsBDW30Ayv6GjO0dKQB-1" source="Hj8excbB3V_5zjSicVvi-10" target="Hj8excbB3V_5zjSicVvi-5">
          <mxGeometry relative="1" as="geometry" />
        </mxCell>
        <mxCell id="Hj8excbB3V_5zjSicVvi-10" value="addEventListener(&quot;click&quot;, function1)" style="rounded=0;whiteSpace=wrap;html=1;fillColor=#ffe6cc;strokeColor=#d79b00;" vertex="1" parent="WqsBDW30Ayv6GjO0dKQB-1">
          <mxGeometry x="500" y="320" width="230" height="60" as="geometry" />
        </mxCell>
        <mxCell id="Hj8excbB3V_5zjSicVvi-11" style="edgeStyle=orthogonalEdgeStyle;rounded=0;orthogonalLoop=1;jettySize=auto;html=1;exitX=0.5;exitY=1;exitDx=0;exitDy=0;entryX=1;entryY=0.5;entryDx=0;entryDy=0;" edge="1" parent="WqsBDW30Ayv6GjO0dKQB-1" source="Hj8excbB3V_5zjSicVvi-12" target="Hj8excbB3V_5zjSicVvi-7">
          <mxGeometry relative="1" as="geometry" />
        </mxCell>
        <mxCell id="Hj8excbB3V_5zjSicVvi-12" value="&lt;div&gt;function1 to retrieve promise of weather data, with a hard-coded API address&lt;/div&gt;&lt;div&gt;calls function2 for now&lt;br&gt;&lt;/div&gt;" style="rounded=0;whiteSpace=wrap;html=1;" vertex="1" parent="WqsBDW30Ayv6GjO0dKQB-1">
          <mxGeometry x="500" y="580" width="230" height="60" as="geometry" />
        </mxCell>
        <mxCell id="Hj8excbB3V_5zjSicVvi-20" style="edgeStyle=orthogonalEdgeStyle;rounded=0;orthogonalLoop=1;jettySize=auto;html=1;exitX=0.5;exitY=1;exitDx=0;exitDy=0;entryX=1;entryY=0.5;entryDx=0;entryDy=0;" edge="1" parent="WqsBDW30Ayv6GjO0dKQB-1" source="Hj8excbB3V_5zjSicVvi-14" target="Hj8excbB3V_5zjSicVvi-19">
          <mxGeometry relative="1" as="geometry" />
        </mxCell>
        <mxCell id="Hj8excbB3V_5zjSicVvi-14" value="function2 assign weatherData.data to new Elements, and appendChild()" style="rounded=0;whiteSpace=wrap;html=1;" vertex="1" parent="WqsBDW30Ayv6GjO0dKQB-1">
          <mxGeometry x="500" y="840" width="230" height="60" as="geometry" />
        </mxCell>
        <mxCell id="Hj8excbB3V_5zjSicVvi-17" style="edgeStyle=orthogonalEdgeStyle;rounded=0;orthogonalLoop=1;jettySize=auto;html=1;exitX=0.5;exitY=1;exitDx=0;exitDy=0;entryX=0;entryY=0.5;entryDx=0;entryDy=0;fillColor=#d5e8d4;strokeColor=#82b366;" edge="1" parent="WqsBDW30Ayv6GjO0dKQB-1" source="Hj8excbB3V_5zjSicVvi-15" target="Hj8excbB3V_5zjSicVvi-10">
          <mxGeometry relative="1" as="geometry">
            <Array as="points">
              <mxPoint x="489" y="350" />
            </Array>
          </mxGeometry>
        </mxCell>
        <mxCell id="Hj8excbB3V_5zjSicVvi-15" value="&lt;div&gt;Event Listener for Button Click to Update Data&lt;br&gt;&lt;/div&gt;" style="rounded=0;whiteSpace=wrap;html=1;fontStyle=1;fillColor=#d5e8d4;strokeColor=#82b366;" vertex="1" parent="WqsBDW30Ayv6GjO0dKQB-1">
          <mxGeometry x="429" y="220" width="120" height="60" as="geometry" />
        </mxCell>
        <mxCell id="Hj8excbB3V_5zjSicVvi-21" style="edgeStyle=orthogonalEdgeStyle;rounded=0;orthogonalLoop=1;jettySize=auto;html=1;exitX=0.5;exitY=1;exitDx=0;exitDy=0;" edge="1" parent="WqsBDW30Ayv6GjO0dKQB-1" source="Hj8excbB3V_5zjSicVvi-19" target="Hj8excbB3V_5zjSicVvi-8">
          <mxGeometry relative="1" as="geometry" />
        </mxCell>
        <mxCell id="4cUrus94AI9YAFvjDLEx-1" style="edgeStyle=orthogonalEdgeStyle;rounded=0;orthogonalLoop=1;jettySize=auto;html=1;exitX=0;exitY=0.5;exitDx=0;exitDy=0;entryX=1;entryY=0.5;entryDx=0;entryDy=0;dashed=1;" edge="1" parent="WqsBDW30Ayv6GjO0dKQB-1" source="Hj8excbB3V_5zjSicVvi-19" target="4cUrus94AI9YAFvjDLEx-0">
          <mxGeometry relative="1" as="geometry" />
        </mxCell>
        <mxCell id="Hj8excbB3V_5zjSicVvi-19" value="Define styles of weather data being defined" style="rounded=0;whiteSpace=wrap;html=1;fillColor=#d5e8d4;strokeColor=#82b366;" vertex="1" parent="WqsBDW30Ayv6GjO0dKQB-1">
          <mxGeometry x="414" y="960" width="120" height="60" as="geometry" />
        </mxCell>
        <mxCell id="4cUrus94AI9YAFvjDLEx-0" value="Create section to append children to, that has styles applied" style="rounded=0;whiteSpace=wrap;html=1;" vertex="1" parent="WqsBDW30Ayv6GjO0dKQB-1">
          <mxGeometry x="170" y="945" width="160" height="90" as="geometry" />
        </mxCell>
      </root>
    </mxGraphModel>
  </diagram>
  <diagram name="MVP3" id="2Pf_xpCGW4N6HJL1VPP2">
    <mxGraphModel grid="1" page="1" gridSize="10" guides="1" tooltips="1" connect="1" arrows="1" fold="1" pageScale="1" pageWidth="827" pageHeight="1169" math="0" shadow="0">
      <root>
        <mxCell id="10z6Ij_HkIURz7MboXAf-0" />
        <mxCell id="10z6Ij_HkIURz7MboXAf-1" parent="10z6Ij_HkIURz7MboXAf-0" />
        <mxCell id="z1FPlIIDBSufbOvN-rWe-0" style="edgeStyle=orthogonalEdgeStyle;rounded=0;orthogonalLoop=1;jettySize=auto;html=1;" edge="1" parent="10z6Ij_HkIURz7MboXAf-1" source="10z6Ij_HkIURz7MboXAf-2">
          <mxGeometry relative="1" as="geometry">
            <mxPoint x="185" y="240" as="targetPoint" />
          </mxGeometry>
        </mxCell>
        <mxCell id="10z6Ij_HkIURz7MboXAf-2" value="&lt;div&gt;Weather App MVP3&lt;/div&gt;&lt;div&gt;Requirements:&lt;/div&gt;&lt;div&gt;&lt;br&gt;&lt;/div&gt;&lt;div&gt;Add location option&lt;br&gt;&lt;/div&gt;Create &quot;fancy&quot; visuals" style="rounded=0;whiteSpace=wrap;html=1;" vertex="1" parent="10z6Ij_HkIURz7MboXAf-1">
          <mxGeometry x="40" y="20" width="290" height="150" as="geometry" />
        </mxCell>
        <mxCell id="z1FPlIIDBSufbOvN-rWe-3" value="" style="edgeStyle=orthogonalEdgeStyle;rounded=0;orthogonalLoop=1;jettySize=auto;html=1;" edge="1" parent="10z6Ij_HkIURz7MboXAf-1" source="z1FPlIIDBSufbOvN-rWe-1" target="z1FPlIIDBSufbOvN-rWe-2">
          <mxGeometry relative="1" as="geometry" />
        </mxCell>
        <mxCell id="z1FPlIIDBSufbOvN-rWe-1" value="Change location of your choice" style="rounded=0;whiteSpace=wrap;html=1;" vertex="1" parent="10z6Ij_HkIURz7MboXAf-1">
          <mxGeometry x="90" y="240" width="190" height="60" as="geometry" />
        </mxCell>
        <mxCell id="z1FPlIIDBSufbOvN-rWe-5" value="" style="edgeStyle=orthogonalEdgeStyle;rounded=0;orthogonalLoop=1;jettySize=auto;html=1;" edge="1" parent="10z6Ij_HkIURz7MboXAf-1" source="z1FPlIIDBSufbOvN-rWe-2" target="z1FPlIIDBSufbOvN-rWe-4">
          <mxGeometry relative="1" as="geometry" />
        </mxCell>
        <mxCell id="z1FPlIIDBSufbOvN-rWe-2" value="Add Interactive Icons that display&amp;nbsp;&lt;br style=&quot;border-color: var(--border-color);&quot;&gt;current&amp;nbsp;on weather&amp;nbsp;" style="rounded=0;whiteSpace=wrap;html=1;" vertex="1" parent="10z6Ij_HkIURz7MboXAf-1">
          <mxGeometry x="90" y="340" width="190" height="60" as="geometry" />
        </mxCell>
        <mxCell id="z1FPlIIDBSufbOvN-rWe-4" value="Father improvements to UI/UX&amp;nbsp;" style="whiteSpace=wrap;html=1;rounded=0;" vertex="1" parent="10z6Ij_HkIURz7MboXAf-1">
          <mxGeometry x="90" y="440" width="190" height="60" as="geometry" />
        </mxCell>
        <mxCell id="k_pKOAF8s4wAadMkiQtE-24" style="edgeStyle=orthogonalEdgeStyle;rounded=0;orthogonalLoop=1;jettySize=auto;html=1;exitX=0.5;exitY=1;exitDx=0;exitDy=0;entryX=0.5;entryY=0;entryDx=0;entryDy=0;" edge="1" parent="10z6Ij_HkIURz7MboXAf-1" source="k_pKOAF8s4wAadMkiQtE-2" target="k_pKOAF8s4wAadMkiQtE-23">
          <mxGeometry relative="1" as="geometry" />
        </mxCell>
        <mxCell id="k_pKOAF8s4wAadMkiQtE-2" value="User loads page" style="rounded=0;whiteSpace=wrap;html=1;fontStyle=1" vertex="1" parent="10z6Ij_HkIURz7MboXAf-1">
          <mxGeometry x="585.75" y="190" width="120" height="60" as="geometry" />
        </mxCell>
        <mxCell id="k_pKOAF8s4wAadMkiQtE-5" style="edgeStyle=orthogonalEdgeStyle;rounded=0;orthogonalLoop=1;jettySize=auto;html=1;exitX=0.5;exitY=1;exitDx=0;exitDy=0;entryX=0;entryY=0.5;entryDx=0;entryDy=0;" edge="1" parent="10z6Ij_HkIURz7MboXAf-1" source="k_pKOAF8s4wAadMkiQtE-6" target="k_pKOAF8s4wAadMkiQtE-13">
          <mxGeometry relative="1" as="geometry" />
        </mxCell>
        <mxCell id="k_pKOAF8s4wAadMkiQtE-6" value="Fetch weather data, using function3 return to determine lat/long, or use detault" style="rounded=0;whiteSpace=wrap;html=1;fontStyle=1;fillColor=#ffe6cc;strokeColor=#d79b00;" vertex="1" parent="10z6Ij_HkIURz7MboXAf-1">
          <mxGeometry x="654" y="660" width="173.25" height="100" as="geometry" />
        </mxCell>
        <mxCell id="k_pKOAF8s4wAadMkiQtE-7" style="edgeStyle=orthogonalEdgeStyle;rounded=0;orthogonalLoop=1;jettySize=auto;html=1;exitX=0.5;exitY=1;exitDx=0;exitDy=0;entryX=0;entryY=0.5;entryDx=0;entryDy=0;" edge="1" parent="10z6Ij_HkIURz7MboXAf-1" source="k_pKOAF8s4wAadMkiQtE-8" target="k_pKOAF8s4wAadMkiQtE-15">
          <mxGeometry relative="1" as="geometry" />
        </mxCell>
        <mxCell id="k_pKOAF8s4wAadMkiQtE-8" value="Pass weather data to our web page" style="rounded=0;whiteSpace=wrap;html=1;fontStyle=1" vertex="1" parent="10z6Ij_HkIURz7MboXAf-1">
          <mxGeometry x="693.25" y="960" width="120" height="60" as="geometry" />
        </mxCell>
        <mxCell id="k_pKOAF8s4wAadMkiQtE-9" value="Show weather data on page" style="rounded=0;whiteSpace=wrap;html=1;fontStyle=1;" vertex="1" parent="10z6Ij_HkIURz7MboXAf-1">
          <mxGeometry x="707.25" y="1460" width="120" height="60" as="geometry" />
        </mxCell>
        <mxCell id="k_pKOAF8s4wAadMkiQtE-10" style="edgeStyle=orthogonalEdgeStyle;rounded=0;orthogonalLoop=1;jettySize=auto;html=1;exitX=0.5;exitY=1;exitDx=0;exitDy=0;entryX=1;entryY=0.5;entryDx=0;entryDy=0;fillColor=#f8cecc;strokeColor=#b85450;" edge="1" parent="10z6Ij_HkIURz7MboXAf-1" source="k_pKOAF8s4wAadMkiQtE-11" target="k_pKOAF8s4wAadMkiQtE-6">
          <mxGeometry relative="1" as="geometry" />
        </mxCell>
        <mxCell id="k_pKOAF8s4wAadMkiQtE-11" value="addEventListener(&quot;click&quot;, function1)" style="rounded=0;whiteSpace=wrap;html=1;fillColor=#f8cecc;strokeColor=#b85450;" vertex="1" parent="10z6Ij_HkIURz7MboXAf-1">
          <mxGeometry x="793.25" y="560" width="230" height="60" as="geometry" />
        </mxCell>
        <mxCell id="k_pKOAF8s4wAadMkiQtE-12" style="edgeStyle=orthogonalEdgeStyle;rounded=0;orthogonalLoop=1;jettySize=auto;html=1;exitX=0.5;exitY=1;exitDx=0;exitDy=0;entryX=1;entryY=0.5;entryDx=0;entryDy=0;" edge="1" parent="10z6Ij_HkIURz7MboXAf-1" source="k_pKOAF8s4wAadMkiQtE-13" target="k_pKOAF8s4wAadMkiQtE-8">
          <mxGeometry relative="1" as="geometry" />
        </mxCell>
        <mxCell id="k_pKOAF8s4wAadMkiQtE-13" value="&lt;div&gt;function1 to retrieve promise of weather data, with a hard-coded API address&lt;/div&gt;&lt;div&gt;calls function2 for now&lt;br&gt;&lt;/div&gt;" style="rounded=0;whiteSpace=wrap;html=1;" vertex="1" parent="10z6Ij_HkIURz7MboXAf-1">
          <mxGeometry x="793.25" y="820" width="230" height="60" as="geometry" />
        </mxCell>
        <mxCell id="k_pKOAF8s4wAadMkiQtE-14" style="edgeStyle=orthogonalEdgeStyle;rounded=0;orthogonalLoop=1;jettySize=auto;html=1;exitX=0.5;exitY=1;exitDx=0;exitDy=0;entryX=1;entryY=0.5;entryDx=0;entryDy=0;" edge="1" parent="10z6Ij_HkIURz7MboXAf-1" source="k_pKOAF8s4wAadMkiQtE-15" target="k_pKOAF8s4wAadMkiQtE-20">
          <mxGeometry relative="1" as="geometry" />
        </mxCell>
        <mxCell id="k_pKOAF8s4wAadMkiQtE-15" value="function2 assign weatherData.data to new Elements, and appendChild()" style="rounded=0;whiteSpace=wrap;html=1;" vertex="1" parent="10z6Ij_HkIURz7MboXAf-1">
          <mxGeometry x="793.25" y="1080" width="230" height="60" as="geometry" />
        </mxCell>
        <mxCell id="k_pKOAF8s4wAadMkiQtE-29" style="edgeStyle=orthogonalEdgeStyle;rounded=0;orthogonalLoop=1;jettySize=auto;html=1;exitX=1;exitY=0.5;exitDx=0;exitDy=0;entryX=0;entryY=0.5;entryDx=0;entryDy=0;" edge="1" parent="10z6Ij_HkIURz7MboXAf-1" source="k_pKOAF8s4wAadMkiQtE-17" target="k_pKOAF8s4wAadMkiQtE-27">
          <mxGeometry relative="1" as="geometry" />
        </mxCell>
        <mxCell id="k_pKOAF8s4wAadMkiQtE-38" style="edgeStyle=orthogonalEdgeStyle;rounded=0;orthogonalLoop=1;jettySize=auto;html=1;exitX=0.5;exitY=1;exitDx=0;exitDy=0;entryX=0;entryY=0.5;entryDx=0;entryDy=0;fillColor=#f8cecc;strokeColor=#b85450;" edge="1" parent="10z6Ij_HkIURz7MboXAf-1" source="k_pKOAF8s4wAadMkiQtE-17" target="k_pKOAF8s4wAadMkiQtE-11">
          <mxGeometry relative="1" as="geometry" />
        </mxCell>
        <mxCell id="k_pKOAF8s4wAadMkiQtE-17" value="&lt;div&gt;Event Listener for Button Click to Update Data&lt;br&gt;&lt;/div&gt;" style="rounded=0;whiteSpace=wrap;html=1;fontStyle=1;" vertex="1" parent="10z6Ij_HkIURz7MboXAf-1">
          <mxGeometry x="585.75" y="450" width="120" height="60" as="geometry" />
        </mxCell>
        <mxCell id="k_pKOAF8s4wAadMkiQtE-19" style="edgeStyle=orthogonalEdgeStyle;rounded=0;orthogonalLoop=1;jettySize=auto;html=1;exitX=0;exitY=0.5;exitDx=0;exitDy=0;entryX=1;entryY=0.5;entryDx=0;entryDy=0;dashed=1;" edge="1" parent="10z6Ij_HkIURz7MboXAf-1" source="k_pKOAF8s4wAadMkiQtE-20" target="k_pKOAF8s4wAadMkiQtE-21">
          <mxGeometry relative="1" as="geometry" />
        </mxCell>
        <mxCell id="k_pKOAF8s4wAadMkiQtE-40" style="edgeStyle=orthogonalEdgeStyle;rounded=0;orthogonalLoop=1;jettySize=auto;html=1;exitX=0.5;exitY=1;exitDx=0;exitDy=0;entryX=0.5;entryY=0;entryDx=0;entryDy=0;" edge="1" parent="10z6Ij_HkIURz7MboXAf-1" source="k_pKOAF8s4wAadMkiQtE-20" target="k_pKOAF8s4wAadMkiQtE-39">
          <mxGeometry relative="1" as="geometry" />
        </mxCell>
        <mxCell id="k_pKOAF8s4wAadMkiQtE-20" value="Define styles of weather data being defined" style="rounded=0;whiteSpace=wrap;html=1;" vertex="1" parent="10z6Ij_HkIURz7MboXAf-1">
          <mxGeometry x="707.25" y="1200" width="120" height="60" as="geometry" />
        </mxCell>
        <mxCell id="k_pKOAF8s4wAadMkiQtE-21" value="Create section to append children to, that has styles applied" style="rounded=0;whiteSpace=wrap;html=1;" vertex="1" parent="10z6Ij_HkIURz7MboXAf-1">
          <mxGeometry x="463.25" y="1185" width="160" height="90" as="geometry" />
        </mxCell>
        <mxCell id="k_pKOAF8s4wAadMkiQtE-26" style="edgeStyle=orthogonalEdgeStyle;rounded=0;orthogonalLoop=1;jettySize=auto;html=1;exitX=0.5;exitY=1;exitDx=0;exitDy=0;entryX=0.5;entryY=0;entryDx=0;entryDy=0;" edge="1" parent="10z6Ij_HkIURz7MboXAf-1" source="k_pKOAF8s4wAadMkiQtE-23" target="k_pKOAF8s4wAadMkiQtE-17">
          <mxGeometry relative="1" as="geometry" />
        </mxCell>
        <mxCell id="k_pKOAF8s4wAadMkiQtE-23" value="&lt;div&gt;Text box that takes&lt;/div&gt;&lt;div&gt;address input&lt;/div&gt;" style="rhombus;whiteSpace=wrap;html=1;fillColor=#d5e8d4;strokeColor=#82b366;" vertex="1" parent="10z6Ij_HkIURz7MboXAf-1">
          <mxGeometry x="540" y="290" width="211.5" height="80" as="geometry" />
        </mxCell>
        <mxCell id="k_pKOAF8s4wAadMkiQtE-30" style="edgeStyle=orthogonalEdgeStyle;rounded=0;orthogonalLoop=1;jettySize=auto;html=1;exitX=1;exitY=0.5;exitDx=0;exitDy=0;entryX=0;entryY=0.5;entryDx=0;entryDy=0;fillColor=#d5e8d4;strokeColor=#82b366;" edge="1" parent="10z6Ij_HkIURz7MboXAf-1" source="k_pKOAF8s4wAadMkiQtE-27" target="k_pKOAF8s4wAadMkiQtE-28">
          <mxGeometry relative="1" as="geometry" />
        </mxCell>
        <mxCell id="k_pKOAF8s4wAadMkiQtE-27" value="addEventListener(&quot;click&quot;, function3)" style="rounded=0;whiteSpace=wrap;html=1;fillColor=#d5e8d4;strokeColor=#82b366;" vertex="1" parent="10z6Ij_HkIURz7MboXAf-1">
          <mxGeometry x="796.75" y="450" width="230" height="60" as="geometry" />
        </mxCell>
        <mxCell id="k_pKOAF8s4wAadMkiQtE-28" value="function3 takes and sanitises data from text box, and fetches Lat/Long from new API, assigns to var object" style="rounded=0;whiteSpace=wrap;html=1;fillColor=#d5e8d4;strokeColor=#82b366;" vertex="1" parent="10z6Ij_HkIURz7MboXAf-1">
          <mxGeometry x="1076.75" y="450" width="230" height="60" as="geometry" />
        </mxCell>
        <mxCell id="k_pKOAF8s4wAadMkiQtE-34" value="" style="edgeStyle=orthogonalEdgeStyle;rounded=0;orthogonalLoop=1;jettySize=auto;html=1;exitX=0.5;exitY=1;exitDx=0;exitDy=0;entryX=1;entryY=0.5;entryDx=0;entryDy=0;fillColor=#d5e8d4;strokeColor=#82b366;" edge="1" parent="10z6Ij_HkIURz7MboXAf-1" source="k_pKOAF8s4wAadMkiQtE-28" target="k_pKOAF8s4wAadMkiQtE-33">
          <mxGeometry relative="1" as="geometry">
            <mxPoint x="1192" y="510" as="sourcePoint" />
            <mxPoint x="827" y="710" as="targetPoint" />
          </mxGeometry>
        </mxCell>
        <mxCell id="k_pKOAF8s4wAadMkiQtE-37" style="edgeStyle=orthogonalEdgeStyle;rounded=0;orthogonalLoop=1;jettySize=auto;html=1;exitX=0;exitY=0.5;exitDx=0;exitDy=0;entryX=1;entryY=0.5;entryDx=0;entryDy=0;fillColor=#d5e8d4;strokeColor=#82b366;" edge="1" parent="10z6Ij_HkIURz7MboXAf-1" source="k_pKOAF8s4wAadMkiQtE-33" target="k_pKOAF8s4wAadMkiQtE-6">
          <mxGeometry relative="1" as="geometry" />
        </mxCell>
        <mxCell id="k_pKOAF8s4wAadMkiQtE-33" value="function3 runs function1" style="rounded=0;whiteSpace=wrap;html=1;fillColor=#d5e8d4;strokeColor=#82b366;" vertex="1" parent="10z6Ij_HkIURz7MboXAf-1">
          <mxGeometry x="1000" y="680" width="120" height="60" as="geometry" />
        </mxCell>
        <mxCell id="k_pKOAF8s4wAadMkiQtE-41" style="edgeStyle=orthogonalEdgeStyle;rounded=0;orthogonalLoop=1;jettySize=auto;html=1;exitX=0.5;exitY=1;exitDx=0;exitDy=0;" edge="1" parent="10z6Ij_HkIURz7MboXAf-1" source="k_pKOAF8s4wAadMkiQtE-39" target="k_pKOAF8s4wAadMkiQtE-9">
          <mxGeometry relative="1" as="geometry" />
        </mxCell>
        <mxCell id="k_pKOAF8s4wAadMkiQtE-43" style="edgeStyle=orthogonalEdgeStyle;rounded=0;orthogonalLoop=1;jettySize=auto;html=1;exitX=1;exitY=0.5;exitDx=0;exitDy=0;entryX=0;entryY=0.5;entryDx=0;entryDy=0;dashed=1;" edge="1" parent="10z6Ij_HkIURz7MboXAf-1" source="k_pKOAF8s4wAadMkiQtE-39" target="k_pKOAF8s4wAadMkiQtE-42">
          <mxGeometry relative="1" as="geometry" />
        </mxCell>
        <mxCell id="k_pKOAF8s4wAadMkiQtE-39" value="Convert weather.data to point at images based on if statements/comparisons to determine which picture to use" style="rounded=0;whiteSpace=wrap;html=1;fillColor=#d5e8d4;strokeColor=#82b366;" vertex="1" parent="10z6Ij_HkIURz7MboXAf-1">
          <mxGeometry x="650.88" y="1340" width="232.75" height="70" as="geometry" />
        </mxCell>
        <mxCell id="k_pKOAF8s4wAadMkiQtE-45" style="edgeStyle=orthogonalEdgeStyle;rounded=0;orthogonalLoop=1;jettySize=auto;html=1;exitX=1;exitY=0.5;exitDx=0;exitDy=0;entryX=0;entryY=0.5;entryDx=0;entryDy=0;dashed=1;" edge="1" parent="10z6Ij_HkIURz7MboXAf-1" source="k_pKOAF8s4wAadMkiQtE-42" target="k_pKOAF8s4wAadMkiQtE-44">
          <mxGeometry relative="1" as="geometry" />
        </mxCell>
        <mxCell id="k_pKOAF8s4wAadMkiQtE-42" value="weathercode from our API seems to point towards conditions like &quot;Clear&quot; &quot;Cloudy&quot; &quot;Rainy&quot; etc so we can use that to determine which pioture to use" style="rounded=0;whiteSpace=wrap;html=1;fillColor=#d5e8d4;strokeColor=#82b366;" vertex="1" parent="10z6Ij_HkIURz7MboXAf-1">
          <mxGeometry x="970" y="1335" width="290" height="80" as="geometry" />
        </mxCell>
        <mxCell id="k_pKOAF8s4wAadMkiQtE-44" value="" style="shape=image;verticalLabelPosition=bottom;labelBackgroundColor=default;verticalAlign=top;aspect=fixed;imageAspect=0;image=data:image/png,iVBORw0KGgoAAAANSUhEUgAAArUAAAKCCAYAAADP3yFUAAAgAElEQVR4XuydeYBfVXn3nwBBlIIkMyJVVOhkY9NaNE1chsVKKdoQU8VgXPrW1pq+gwFL1SqLgWhVqBAYjVrfvq/aKGIbQmjRYpUQF2LA2hZUsowL0hesMyQu8AKW+J67n3vuufee+1vv7/4+81cyc+9ZPmf7nuc857mzjp1/3K+EHwhAAAIQgAAEIAABCAwwgVmI2gFuPYoOAQhAAAIQgAAEIOATQNTSESAAAQhAAAIQgAAEBp4Aonbgm5AKQAACEIAABCAAAQggaukDEIAABCAAAQhAAAIDTwBRO/BNSAUgAAEIQAACEIAABBC19AEIQAACEIAABCAAgYEngKgd+CakAhCAAAQgAAEIQAACiFr6AAQgAAEIQAACEIDAwBNA1A58E1IBCEAAAhCAAAQgAAFELX0AAhCAAAQgAAEIQGDgCSBqB74JqQAEIAABCEAAAhCAAKKWPgABCEAAAhCAAAQgMPAEELUD34RUAAIQgAAEIAABCEAAUUsfgAAEIAABCEAAAhAYeAKI2oFvQioAAQhAAAIQgAAEIICopQ9AAAIQgAAEIAABCAw8AUTtwDchFYAABCAAAQhAAAIQQNTSByAAAQhAAAIQgAAEBp4Aonbgm5AKQAACEIAABCAAAQggaukDEIAABCAAAQhAAAIDTwBRO/BNSAUgAAEIQAACEIAABBC19IGhJDC28jJZvWSuyN7bZcPajTI1YBTmnnqenL9soTxh5jb52Hs+N3DlHzDc9S3u7EWy4i9WywtGH5Vdm9bJx776s/qWdZBKNm+VXDSxVI6QvbJj8mK5fs8gFZ6yQmB4CQygqJ0t4xN/LcvmHSDy0L/KJ971t3JXUfsdfpacv/YsOXqWyH1feKdc/YWiSf835XXr/lie82sq6W99XC79xL/5KccCyPvPz++Qv734E/Kdin3m+Ne9T/7oZJWw+tm3fb2su253cQpPfLo854Wnym+ffJwcPXK4POlgVV/v5/FH5KG9P5bd3/oX+dKXvyX3/7+KBfHrc7kSdHPUv+6VWy75gNxSuA4qJu9RTA5NM7Hneric8efvkTOeoWD/6GZZ+9c3y8+rF68nbwy6qB2fuFaNAcWZRbcn/aW2mcTiS5Vwzya5cPLLtS3qQBVs4ETtiFoX/1LNCSJTm/9Kbjnq/C7O8e9Vc7xqTW+Ov3GOrPHFv8v6KnLSG94vb3iut5iUr92Hnfk2ueTMZ8osb5266k4ZW71CxmS3bPnAetn24ED1JgrbQwIDKGpFDjvjL+Tis54lBzgs6Aedukbes3y+HKig7leT/jvVpP/feYDjieyX8t1Pv1X+145f+U+mRK38Uu757Nvk47f/0r2ZDj9dVl+kBuTBwSvFona2POMlb5I/POs4ebJX6KKfx/fJrps/Jn/7pXvz62R7/4Q3yLv/5Pnya7JfTYAXyoatj+Xnoi+aZVbN2aqe71P1VOV+4NZ1cuWND7gz6vGTgy5qsdT2uMPUNTsstd1pmQETtWOverf86QtH5WFljFmnjDH/reb4S9Ucf1g35vj3qzle2ViCOX5UVl3+ZnnuYQ7rq8yXcy5dI4s9e0rp2u0Zr65UIt1bTL4kV7zvBnn4RefJ21+5UA5WYvp9ymCCru1O1x/0VAdS1Ipnfb1MWV8V/WLxNFt++0/fL686LlSTj90tn33bR+SOnFZ76tkXyV+cdpQanWo3+A61Gwy1XiyAHvulPHbwbDno3n+Uyz/4BWcr5NNXXCIXjB8pj6n3D1bv54va2bJg5Tvlj5c8RQl29aNE6/fv+Ip89Rv/IT984H7ZJ3PkqUccJQtOOVNe/FvHylzfertfHtz+YfnAdfdUELaJ9fWx7/ydvPNj23P7cVT24IEH5Lb3rZOb8rTq4jfLe15zojyhdMLq9rBRVu5XvFROO+FEefirF8rHtmbzG3RR212COr+/UPyCzR0/WQKHLfgd+b3Tf1uOmzMlf/dX13XcDeRpz32lnH76iXLcQ9vkXR/BCtuzPjhIovboV8iFb32JHOWtbxer9c23tySnjp2e49+r5viDtTk+tr6WrK9y9Cvl7ReeKk8JG7F47V4ib3z/a+W4J+hGoMPlhX92ibxiwcHq1HWtOnWd6Vl3IKPBITCYolaOkt9/x0VyitKf8v3N8o71/5Ij6KKB8ZA89NChcuihD8m//+3b5VP/YWug2XLamqvkZceqvxlH54kA2iv75sxRRy3/JV+58jK58T6Xhj4x3Mmqd/eqd9UuNU/UzlVW5bcqq/IhKtlH7t8qG6/5e/lunnvB7GfKGee9Rc54pv+0f+S0Yav7IH/+m66SVx8/W+Sn2+Vjl/6d7LJWJeIc8Ss+YlrwmsvlTd423OFoyYVc688oi/HV3lGVdxQ3obggaqux1Pmdp/ghavP4xa48ZacY1Rogfnp8YtI/Usa1oEWArb42MKLWM9x8QBluDswIvee/6YNqjlcGnW7P8cqYEQjdfXLHhovkszvt0J969ruU0ejX1Vr8kFqLlQtCkYvawtfKxauXyJPFW7PfodbscA6yCvhWG5n3mkhgQEWt5hdatDt89h/Ju//ot+TXHtotUz+fL2NKBOdbSZUA/oDaGao5wNxBJqL2X+Xff/Fb8hzlT/SLb35E3v2pu0v7xEFL/6dc9urj5GDli/utHz9fnqsWKGsZDj9T3nLpy+WZ6rRl/4O3y8f/aqPsKvNwUEeP5/zln8niucpi+5iyLq9T1mXHeyKeW8Z7lYA+oMj6GlvE75WpPb8uY/NmF7hwJBuNMstAKbS2H0DUtocQUevKD1HrSmrAnhsUURtZPx/7rnzuXR+Sb2hrRuJ6V3DC1ok53nM7S7kk2I7ykvsW9+3ZLUfOmy8Heyeib1drlmWdiwSweOv725X1Od5XJyL+gVs/oNwfnCxLA9b5KG47BAZW1IoSrGuVYD3U38nZra+RGPV8aT/z89+VVZ6Deuif82OTWpxe9rarflT9sVuOkD/0RKqTiDxazn7nO+TFR+5XQvkDsuMZ7/CtLjZRe/zr/kpdJPMck9QE9EF1xO86VjWf159se5+8f5Pji5oLR94Fulj4KivUJ77xdHmDctr3JxmbC0d8Ic/z0/1zZd0rU+TtdNuydxG1ZYSK/46odeWHqHUlNWDPDYiojfqf1cjicEk6d45PCcmw7XLneE+wapfHbBeE4/sWan3929vlaX/kuQ96d1cuUHdXzL6RCGDrPZjoTshPtspV7/l7+c8B61oUt7sEBlfUSmJZtVtfE8uhL9oefE14RGK/8X+McrSfUI72tqPztP/lv8uS0DG+VERGzvr+LvpT8uS3BAM/W17lonCZcrY/XGnG735GLvno1yr4x2oRB/IEu7UPJXzyLtBFLgp+JIh/PlYufIfy28rbRCgn/vcrJ/4DcyIqHHTkYnnZyrPk5KPnhpEcHpdHf/pfsvurn5Hrvvg95UBh/znkac+V037vLHne2Kgc9qTZvq/x/scelr337ZBbrrtRvvlfmnhW1ucrlfU590c7IjZ9an8Ylm/xs0blCd4FPRVl4qf/tUu++pn/LbfeWyDQZz9VTv7918gZz3umzAnL9/ij+2R61zb5+0/fIt/PuI8owXiVco1QgQumNquj/W8cKy95wxvkJQtG5OAD9svuv3+LfPSrDoM+qmvm2Du5jBH0sx/IU55/tpzzu0vkmaOH+BcmH390Wu79xs1y/U075Cd61SrwS0r4RDn2pa+TV75ogYw+OUg/t338l4zy/cPP5OQ/eL0se/6z5FD18oNf+2t57+e+r54zOG09SJ7xonNk2anPjeux/7GfyU92bpfP3/R5uVvvB2Hh0m18vfzs+efIqrMXy9G/5mX0VZm87Dr5gYbavY/qF17sbeW3rea2cdBhC2Tpy14mLzrp6XLEoQGnqI99/XOfki99T+8oSd3tqesbb1WWS9TlGxWdzsxTb6Nf/82Xyu/+7mL5DS2Sit9Pv/9d2X7LJvlKKv/ozTb6kkMX1h855DdOlWUvP1VOePocOdQfgGE/+vF35Guf+T+y7f+aCT5RWqtTlM5secpJvycvO2uxzD/yiOyYP/ic8pBelcd+kHdU1xPjuXC/PPbwz2TvvV+TTR/5fAW/7Kh98gw77czx2pF/hKxgjs+7jxK3WnTfwndNu1mOCd0H9ShDSQuPy5/+9TkyX3UDu8EluhNScsejYh/k8WYQGGBRGx1DKL9Qm5iLd5Vhx5+Jjkhsu8Nkp2k7OjcF0CPhxa/i8F7JJbVgF/1ofPMzI2qPUo7+b1eCcZZDNAJLvzvmVZcqQe6536vjnAvUcY6jC2R8CSxzxONlEk0cEa9kgbM5+J/0hvepUC0qZFmmLdTi8ZI3y3kvWyhPiqKSPaok7BPChV3l9Mi9N8tHr71ZfmRox6ee9Q556xlHBwIgFAGPKo/jcM1TouAn8tUNa2VzFEOygihLWd+vE3nlny4Vz4vj8ccflwMP1MJO7J+WHR99j1y/MytsDzryd+SN5y+T+XHFHpFU+R75odzy4avllpQo1sXaevnx+HnyAi/j8CfPBzjT7E6idlKul5Xq4uGo2gyoTcSjCnsMT3FXJxgfVNFA4lvEFfj55XniiXLOW/9EFj8l5LX/l/Lofx8oT4jCzyl2//6pa+VT39J9vXWh9HG5de5r1cUPzy88+EnGhs7pUvn28W+Tly841N/UPG70H68ffP1j75VNRhvpbfyJL82VV6tNV5xTajNQtY9WFLUn/7Fctuo34/4vGU4PGzFmOyhqVRud/ZY/lBf/esL48UcflsdnP0ltoiLqj8j9t35c1t9oXjbV26piX3JdH5UwfMHrz5OzTzoid5xnxkRbdfIKNiK//aY/lz84/vDgQq762f/YI/LfBx0SMPHG/D/tkQW/vyQ3Tm1rY19dBH7VX8obX3hkWFclZh99XA56QrBZ9+fv89X87couOm0rcMF7+oqL1SXlpwYnbBnra6fmeFXg+BJYOnJQVJVofYjW1/iEw7Z2R26DBa5xkcGlPEynK0yeawqBARa1IolfaNb6GvsTxYtXIlwzu8PYJ8guKjM35T3/13cr/9cDCsJ7zVURGt6ljlgOjC6VmVYPLU5tu1EDlBi5QlkoZ8m0fP3qd8umHzh2z/iIzXDG916P/qb5PcW3XDMO/om1yBTsh4VhWA5RURp+vusf5ZP/O7JeKkvLknPlf5zzW0pMqggOX7tWWejSsXv9iW/xgfKDr94km794p9z380BYHvIby+RNbzpDvDty+62RKCq4Hzw0LQ8eOFdmq3Q2fupW2ePnocp2yhvkTWefKIep1Wb//bfIX79/i6RcVg5X1oR3KmuCV4af7ZR//j8fj61thzxtqbzqj8+V5yixul9ZBD+qLILJxx0SwXLfvT+Upx05W+7c/AnZsv0/c63V1tZ0ELUPPTgtBx5xsPzo8/9HPr11lwRVe7qMv+5/ysv9BX2/3HvzRXJNJlCxi/vBfFlxSSjIH/m/suMf/pdsuuPH/gmDZ5V86Z+8SV7iNdAjO+WG914rX4t9vbVxoOp/0NFz5H69fHFlE04/eeABGTnySTKVek4JUWV5ff0fLBVfrz2i3/wOEknG7Q/l3oOeIXPu19s4odp2H/ViPhddFPPb6hkyc9ctcsOmr8g9ewOrrGcZPvfNr/X7Sd4GufyiWIGlVve598L/feGT8pmoH3jjSJ2C/O6rzpUXHvsk1Rdsl02Ttmq9LxXNRV5sVc8l64leA8r92/9BPvtPyTg/6LBnyXNfdq4cd9/75JPR6YVXp3eoewQj3g60lTrpEWaCPD994+1hvO/Zctj80+TcVS+TBYfPkv0HHGAPG9nq2I/DbD0i937xY/K/bwnHpKh8n3GivOhlx8u+j2yU2x2nb4kuaBVduOrBHB8UV+srWoz3+G/+aYLmmha7+2XXbpfINF4M20uVO1z/72+4NhbP9YrAQIvaJLRX1o8zuvmpC9j4iMRcgOLbm3bXhOwgm62CSF/uWybtokok8pFN/l4gamNROiX/9Lar5NaCsLHWjhHfFK369Zsk7IspRmNW+oQZcTId/GNLsyGOZ6v0L1EfblCuwr+I4icaFZj7kgvkwt8fUz7KykXjInXRQav7MWetlGPv/Ae51XK0HG9a9ivR9OdKNKWs0xVErbecmhbLsIxJODOzX3jtf5lqf1Wxn6vjtMvUB0BMQ+7c35GJdyyXYw42Nz66FW6vui18mbot3IL/sYOozY+KoVkarQtiuaidqxaVd6hF5YD9is069QEPM2ikEh+v/ssJeb46Fk+76ehWzl/KD25aJ5NfskXt0Dn9Qu76xFr5xLcsoUCi29Bx3MzkkooeX/oxFSXlShUlJRPbsmofNS7jOPnUvuBVcs6+f5Trv2Mpfyw67BvSdkTt01WIwjUqROEBBacNntUyFpaZD8vobZUXYSUR1VU/uHKQmk8uVbfmn1ghesvT1Q36NeoGfXmdvA8RqN2OWae4vxSEQvT67jtV37XGU2197LuItSoLv5uwa2OO18JaSmqOt99hiY0e5voav6vPo5H7oLl2Jy4TdteEkJCLoK8Ck2cbQ2CwRa0W2iu9Y4sGsnEUEi8gaV+cwqOQlMVH+6RqfNxiCe81+4Xyx+vOlUVP+IW6xHaJCkfiKTUXUVvNfSDuhS2LWpE47EvqGCixaqdcDWKLdtqFIxaYxhFXbEnf/0P5wruvkH+xRmaIwq7Zj61yR1rhRY4qorYgPNsxK+Wd579I5pqhauJLD3mWzqDU0RFZum8mYi1vQ+Q0u7iI2oKLFLEPudXCWCZqk75cFAUkvsGc6luaUCr8Op8rJ80NKS8Un/xCvvU375CN386Sde6jfmSUrOuSk6gtbFDTdzjtO9S6qHVrI79ouUfHWlsV9qXQ/alSWLPkLoD7PYJEQJdGn0nVKbmMFPfJki9DJqeAhqGgjbEf5/3Qv8nGd39cvtXCXlbvSlHfK/tCZetzfPIBotQcnxfrPTYOpdfX+MtgqXkg+TJoan6M+ZasB9H8X6nPOc2sPDTgBAZc1GqhvfTYqPrRub7bjP1EdQf0ZGf40x2Tcvmn78k0qX2Hfbj8zlvXyZnPPCBjhfS+eHaR+uLZgamFwEXUVrW0hkWNLb3VHeeTsC/aLjoWr2Z57C4c8aRpxAyOd+6FsYSThcoejFsdzT1lnixScdSe9rQF8tSnjMrT5z5JZj8x8gm0MasgagtjOOakE/t8FVvW7ZulRMS09dU1B1Gb15/9XhP7z9r8+EpEbRw5ozgupZeH7xaT2uwk46D46FBz0yj5vPVBytr/PmXtNy95Jh9Nyf/oinMfDb+ElA33F35y2mFxPWTOb8jCE+fJ055+jDzjyKfIU596uBxyyKGxj7jtolfLojZuo6LY3NFUl4zB5KKe97ekrcr6UuD+VGFTPludZHxAnWTMqrCZje9JWNylMrN2UvakTl4s8g+qWOSzUp9Bt67heZvmdsa+dqrw+L7vytbNm+XWf6vodqQV1lXUdnOOT7HTQnslvq7Jl8EyrmmhC0Fq3MaueCWnlojaAZee3Sv+wItaiT/5moibeEdsOVqNrGfxjf948s8LL6L75mmWWtUmcQzalCUyimRgWvEKRG08gXq339eo2++ON73CfhFfFLNeBijpPHF8XM2fONpxWz6ikHXhSI63zAU/XpAd+6856R1y/Cvlza95cXBbPfWjX7BoU9QWipEcURtvIhwrlsqj2DLnmGIiSkujH6T9lOP02xG1+qeTnQqsi52CcZBKqwInvS7aRUmX4952+6iLpfagI8fltW9+hRw/N7oQlFRUv/TWUVEbt5HdpcpstvGJa9Vx/SwjMotjW8XjoYKozTk1K+xOlesUfLgimVfKNtBa7nmitq2xLzL3ucpX/7XPl9HobuVjM/LDf71V/vmfvhb68zsNKP8hV1ErXZzj06VNDD1JRJ3kA0ipjyh4L3puCX5EnWQOz79wbHBB1Lp3lCF7cvBFrWZ9DUTVwypm3ntU6KxZ1k/oxsdK0Y3RPD/R1I74Mlm9RDkHFgiIyG/QE7prVRzbJ2R8RIsWiOSTgO5HcVEBtZh+FT/fG6SgHQOGn8w1b6qmxoS5GEkUuSErLtsRDActXCVviyIS7JuSb97xr7LzO7vkgX375MfeRZtOuR8gai03rksstXUVtcamrhaidq5i+TYVws27UPjwj+U7d3xDvn3PXXLv9C9k5ic/VxfruuR+UFkA9kvUuolufw6qXKd8UfuDm96qfLkLLi90SdT69VCXNZ9z+svkjKUnyFOjDfv+h+WHt0zKhi/c6xzO0VnUWuf496s7AYfaL1pVmONNvRS7GkRj8aTwA0hWg4sZUUfiL4WWuVTEfcHhhGTINN3QV7cBojbxXfQvKlzziLz2fWoROTDnKN84lvu35waDu+iSQ9Hi6LkaXKxcDQ7wfbRukKe99XLlknCg5YtjRaI2Cf+lbp7ZL97kdVXNymu/yV7exxNfLy+G4FfkOPOmaiqJKAxM4MLxv+TNcom6MDTLYtWNreK7rpe3fdg5UI3KTfO3yrvg009RGx2RWS+plfGuYIEsSsrB/aBwYWjHUhtbWCpG2/Dr42j9KxF7OprYP9iIPesialvvo0EJyiy1yd/V56jfqz5HnfGj7JKojduoxEUkapMw1m36tMWxrVqx1MaXh1zKF7Z2pXdMweRdIDxWVlz85/KCEfXl2BxXs7hf5X2Mp62xbw5oL9rCC2XZipfLc4MQHupjBH+pPkbg5mwbnZoVXqgKs8zM8b47Td6HcpLTt7I5PjNFGZeGv378Wt8glBcLPRVR529E3rhWRQya5eBeErVPpdjsZXMzf28CgUaI2pT19e9FXuF9h9oisoIGS3xoH/zaZ+Se485VcUKzn8bVG7dwcfQuhb1HXQrzLpF8fpvM+T11nGIVpiULhOZvlXtTOzMnap/JzbuF79JL9Z35x78tC//YOxLKt6DoQuBGeaWKM3qAdccf3c4tDHdkLV/CKi9ua2wR146ukqQq+NS2YqmNffta8YFugKiNT0da+Xqco1DSRG3xoq2+2vcu9dU+FabZfM5F1LbeR91EbXRakbvBiC802T+e0LJPrSg3qPAjMe6XqrwLdX+pLtRF7k+ObdWKqPX60DoVGUWFti4tXzywk4/UlL4Tc01fEoz9/0u+RnX8696nvvCoCmfOL22N/bzJOOnD+6sYAFS4xA+o2MsHFIX0irKsPMd/UF59/MHiladojs/WSHfx+KjsPO5P5RT1efrceLLxSamKYrNJ5GyvPg5udNG4rcTLZS3kmYEn0AhRm4T22is/+P4sOebYIwrj18XWk+9PyQ+OHZNjrMIoaduyxTGaAB977Jdy8MGzc74KVrZA6PET98vD3/+C/M2Hsx8kiEuVCkDu7fCV1XRH1VhgUWrJAvMDxeQYxST3c8LqleTTiorfAYrfk3M+GqHF880P3WQbQzYri/acHquyH6JWHef9TmiRd96AxMVvgqj1QtaFi/7ePAtk3txYNg6i97SQXgWnF3OVoHqruqR0iCXCQdm49XNquY9WE7X2S3FeOK0w9JRKrqM+tSq9OCSdY0iv/crqtf59N2ifHXVsq5ZErXZXobB86X4Uf0ygtE4BV7NOyWY4L0SZys+LMX6Rshj6X0TIXpZtfezn64XYYqnCC16oPoji9BNZ4ws+vpCkU32Of48aVwfuLZnjLQWN/WLj9bXgArN2KTlau/OsunpWkWGlrcu2TpB5aNAINEPUxtbX/bJ/vwqYrYL5T22+UH2mMkfkxUdLYXPlWnWjhSvPpzZ8X7OyKruDYe2IuoTLAqEWuT9LvpwU+OB9UbZv3yk/uH+vPPLEOfLUo46RE377VHnh88fkyf5lAxXI+wvXyIcr+GLZOmlkwdi/f7/id4DlU77aW7ELR/S7PKuuJ9TfFX7RSgU6/+Y/yo2b9QsRQWSD33zJmfLsX/6jfOgfoktNifuBqMD+X9l4rfzTXZ7/oRcwfqkse90fyPNUDMn/PkR9AcgqarUb9t/fIld9+Jb052BVOk6Cx7MWXq1cWXzBMaH6U8JA9/l95P475J83bZLbdwdl9H4OOuxImfdbL5WXPOcx+cI1n7N+fCH/s6YO00hX3Q/K+YnuK6o+PnGrqn/qJrfqq89a+GI57awjZfd7Py5fi6vkMg68hxNR628W9/9EdugfqZh9mMw740/k9S/5Df9LXY8oi9L7lYvLzzV0bm3cah8N21m1w3vV4n+A6of/qr5q9mkjFm28gd7/M/nujR+SjbcFt929D1Sc8ro/lN995sHymOrH3uGzrT/E7z82JZ+/clK+lInZnFjGMu9X+fiCVSQ6tlWLolYyH1LYKNd/9buyLwzn639aePkKOfb7LX58IadOKy5WHw3xPt6g2mR36oMe3gdhVshrli+VOQ9Py+NzR+VQy/zS6tg/5qzVcuqs7fIv2+6OPyTjuVodNv/35H+80fuYTHGIwOysEFnj3U6MKs/xvitA2RxvmatiFw21HnsfsCg8DUsi6kQplX8lLOqXbvV2mE15pEEEGiJqNauE3zhllw+iwM9BS5Z9laR8cdRiZeYeazkuECoU+XEr1si5Lzo6+axmTofb//B9cufn/kauT32GtLXemVgwvPfLwgAlLhx+boV+TZ5Qf7v6xKn31aLwR30m9OFfHiBP0j7ZmjmenadixP6ZihEbvfS49glaJXRv++K98pyCz1jGgef9LNUnYh/eL7MfvVM+unajLzDL29R7r9iNYe6p58n5y5LP/6pVUn3D/TE58EnJJ4CzrheDYKlV4ykK3J/Dz/v1QQtXyoVvelF8k9snnfkEq3kj3nUcaJy+uEn2v3B5+Dliy+d+7/+SfPKDN2T8Vd3a2Ct1i33Ue3W2mksuVzFsw6/Q7n/sYfnlgU+S+246T22C1DG+9vUpH6X+iVxP6H5uuxz86jPCjVP4jj6EUxvmiO+j8m8fvliu9z8PXSBqvT/PfVH2kuQAACAASURBVKH84VvOkROPSCKIZNpIfWb4W383KRsz84hjW7UqasPyvfH8V8txhyefihZ9rKtnMi5IbdXJY3K6/OmFUX8KYOtRKPY/eLt8/LMi56xemvuZ3FbGvv4xkOxcoU7ndm2Wqz+sfbZa7wc5/45OTEovVnnjNbrE7KfVyTneKFwcpz34fZnPbxxRx3/aISxlFPGoJNawAz4eaSCBxoja5GasNy6+JFeoY7TUZ01TjadZApUQmdr852oBynfOd1oc/U8gnix7rZ8dDRefMNal0wTkWSle9lJZctwz5YhfS2JZPv7oQ/KLB++Vndu/KJ//evSZxQ70zDjotUrL4TgrtiCpx8vr433S9Gx5xem/Kc868og4LmdZXbzPiL5s5Vmy+FmjwTtqsZv54Xa55bob5ZuHnyMXTeQvOt6nbo97+Ztl+YuPkZHgZXn0B1+Ua67+R79fOLVpiaj1qPtlXPFSefaxR8qTI5GuyvnQL/bKf373a/LlTKiewRC1ZfziHvfE35CXvOoPZPGip8mcJ4Uhq7xNy//7qTy481/l1n/5ovz7/9W/pOUolMyLYt84Vl7ymnPlRQufKocd7FnZVB5qHNz9lRtly23fs35i2K2No5q01keDPjAuK//HmXK8ijvrF+2xn8l/fPZd8nffDH1TPUZG2X/+4+/KVz/3KfVp5aWy+ip1GqAsYnmW+0OO/31544pT5JmjwWbp8Ue/L7de9dfyBf/jaSWi1q/eE+XYl75azv7t4+VIFePZK6M/Hn76X/JD1Ue/eONW+b7lY2fOl/raEbVeUTyr+6l/IC+vVL5W6xS2t2qTF599trzo2c8M+623IX1Q/vPOm+X6m3bIT561qmR+qT72D1twlpz9+4tl/pFz5NBwrvA2QT+f+aH8x22b5Z+rfirbq0oVgVd5jg9PKJ3meH0NSmLTijjEIdajqThEM4iEfPpLhR1YA0miEQSaI2ob0RxUAgIQCAh0SPyDEwKNJhDFhn1cbYouVcYZ62cbm0Mg8oGXoq9UNqe61KQ6AURtdWa8AQEIdJ0AorbriMmgGQQiS2c7EXAGgsRs9enxv/KjMjz4tWvlvZ/L+bDMQNSFQnaLAKK2W2RJFwIQaIMAorYNeLw6VATUZcfXXCJvWvxkeXD7h+UD193j/AGHQcJ0kLrgfdEf/ZY8yfN5/quNlpjPg1QbytotAojabpElXQhAoA0CiNo24PHqsBGII138VO7YcJl8dqfbBxwGBlMUbUXUxdMPrJdtDw5MySlojwkgansMnOwgAAEXAohaF0o8AwEIQAACCQFELb0BAhCoIQFEbQ0bhSJBAAIQqDUBRG2tm4fCQQACEIAABCAAAQi4EEDUulDiGQhAAAIQgAAEIACBWhNA1Na6eSgcBCAAAQhAAAIQgIALAUStCyWegQAEIAABCEAAAhCoNQFEba2bh8JBAAIQgAAEIAABCLgQQNS6UOIZCEAAAhCAAAQgAIFaE0DU1rp5KBwEIAABCEAAAhCAgAsBRK0LJZ6BAAQgAAEIQAACEKg1AURtrZuHwkEAAhCAAAQgAAEIuBBA1LpQ4hkIQAACEIAABCAAgVoTQNTWunkoHAQgAAEIQAACEICACwFErQslnoEABCAAAQhAAAIQqDUBRG2tm4fCQQACEIAABCAAAQi4EEDUulDiGQhAAAIQgAAEIACBWhNA1Na6eSgcBCAAAQhAAAIQgIALAUStCyWegQAEIAABCEAAAhCoNQFEba2bh8JBAAIQgAAEIAABCLgQQNS6UOIZCEAAAhCAAAQgAIFaE0DU1rp5KBwEIAABCEAAAhCAgAsBRK0LJZ6BAAQgAAEIQAACEKg1AURtrZuHwkEAAhCAAAQgAAEIuBBA1LpQ4hkIQAACEIAABCAAgVoTQNS23Dyny+qrV8iYen/f9vWy7rrdLafEixCAAAR0AmMrL5PVS+aK7L1dNqzdKFNt40nmq6nNE7Jha9sJkgAEIACB2hFovqg9dY1csXy+zEqh3ys7Ji+W6/e00x6I2nbo8S4E+kJg3iq5aGKpHGHLvGMCst2azZdzLlkji5WmFdktW85fL9vaTVLNg1eqedD7YRPeLkzehwAE6kqgwaJWXxhM/IjaunZIygWBrhIoErVhxnUQfW1ZauM66oIYS21X+xWJQwACtSDQWFE7PnGtLJsX2mf3bJILJ78cAx9buUZOvnM9ltpadEEKAYEeEtBEbeoYPnWi04lNbw/rZGQVC+JOWXn7VxVyhgAEIFCJQDNFrW6NMQStjc7YysuV/9oc7U+WRc2w8Ext3iSy3OZTqywiV6nfx/4Og71AVupNPAyBuhPIE7VeuTVhm7LWZqy7hkuAxcVpavN5ym/1VwEN7eg/+EU4J0jiCpHMJ8HfHjgz3JRHLhFGub994qTatIewY7eJnNMp7+8bRc4N3S7SPrWWdww3jPGJMC8jnbgebblx1b3DUD4IQGCQCDRS1CaWijJBqSb0S5Xvmq5ntdaLF6aSI8t4Acx9rqwcg9RlKCsEBphAkagVbUMabYYzgjSqeyhsc/4ezR3ZDbNd1CZEy0Xtvr175Yg5xqTll/dHmi+uvkfPEbWF81oi3BNRu1f2qXxT/si18UMe4D5J0SEAgY4RaKSoTVwPSsSktiAl1gvNchFO2E+PXRm09CwXL+J8tYk++l0d/PQ61mtICAKDSqCSqNVEYnzik2yEvTnjlqOiUx4lAi9QF7pC46yPJ+/E6NRVcs59G+V6zVJrRjnIzCV6Wpb5xb9QFuZvdT+w1DuZJ7Wya89Fc1YsalWVonnSeY4d1H5CuSEAgYEk0EhR62qpTawo6ePE1KJwwc1y1MXhTeSUK4MZ/UDsVpKoWzi4QQxkD6LQEBgkApVErRiuROmK+qLvzsWZaArxCU+88c3ZXFsEZJRDkai1+wInebiJWm3znpqbsr9PuR9E4cVilwtOoQap+1NWCDSdQCNFba5vnNGaiQWiSNTeJSd8MPSRLRS1zyhcADsXb7LpXZL6QaCLBApEbSIGPYuk8om97zX54b+8IsbzgelHH/xtw/Rpoa9+uahN+eCq17svai2uFj52RG0Xex9JQwACXSbQTFGr+8YpgObR//jE5XLUF1Sc2qOT2I357gc75GRLzEjdVy5IX7PU4mfW5W5L8hBokUCOqE37vkbH8XnCLz/vlBjVLmclAli9a3E/qCJqk7SMeLbddj/Q5zUstS12QF6DAAS6SaCholYhK7wEEVlOHC+K5V4WCZomFs3WDz14T3QogHo3ewJpQ2AYCJTGqU1bVXXrbQpPKPAkEzklPSfo/qjJ+7boB1q0BPVgoU+tpZ1SG3dzvsqLflD5opj2dTNE7TCMFuoIgYEj0FxRGzZFKl5t1Dx5IWvi5rNc+kgtFN6idKuMTFhCelkXCkTtwI0MCtxMAgVCLvcyp21TWyBqzXSyERDC+SBlNXYXtXo4wdSmWmuxlJguDOlld53Q43rjU9vMoUCtINBEAo0XtU1sNOoEAQgMGYHCC25DxoLqQgACEMghgKila0AAAhCoOwFEbd1biPJBAAI1IICorUEjUAQIQAAChQQQtXQQCEAAAqUEELWliHgAAhCAQJ8JIGr73ABkDwEIDAIBRO0gtBJlhAAEIAABCEAAAhAoJICopYNAAAIQgAAEIAABCAw8AUTtwDchFYAABCAAAQhAAAIQQNTSByAAAQhAAAIQgAAEBp4Aonbgm5AKQAACEIAABCAAAQggaukDEIAABCAAAQhAAAIDTwBRO/BNSAUgAAEIQAACEIAABBC19AEIQAACEIAABCAAgYEngKgd+CakAhCAAAQgAAEIQAACiFr6AAQgAAEIQAACEIDAwBMYSFG76IRnDzx4KgABCEAAAhCAAAQg0DkCAylqO1d9UoIABCAAAQhAAAIQaAIBRG0TWpE6QAACEIAABCAAgSEngKgd8g5A9SEAAQhAAAIQgEATCCBqm9CK1AECEIAABCAAAQgMOQFE7ZB3AKoPAQhAAAIQgAAEmkAAUduEVqQOEIAABCAAAQhAYMgJIGqHvANQfQhAAAIQgAAEINAEAojaJrQidYAABCAAAQhAAAJDTgBRO+QdgOpDAAIQgAAEIACBJhBA1DahFakDBCAAAQhAAAIQGHICiNoh7wBUHwIQgAAEIAABCDSBAKK2Ca1IHSAAAQhAAAIQgMCQE0DUDnkHoPoQgAAEIAABCECgCQQQtU1oReoAAQhAAAIQgAAEhpwAonbIOwDVhwAELATmrZKLJhbJrsmL5fo9NSFUxzLVBA3FgAAEIOARaLSoHVt5maxeMjdu6X3b18u663bT8hCAAARkbOXlan6YkyIRzxF1FJB1LBP9CAIQgECNCDRW1JqCNma+Z5NcOPnlGjUBRYEABHpL4HRZffUKGTPnAk80nnm/rPPmhzoKyDqWqbcNR24QgAAECgk0U9T6k/9SOUJVPbK8jE9cK8vmzVK/2S1bzl8v2+gYEIDAEBKYL+dcukYW7Cw5tamjgKxjmYawB1FlCECgvgSaKWpPXSNXLJ8vs2Sv7Ih84jShO7V5QjZsrW+jUDIIQKBLBNTccOVyKd/Y2gSkNof4pbNZesPNtP/3vbfLhrUbZcr/TySmN8muhStksfJ6yJ2H4vkrZBDlkymTsjhfpSzOs9RGfXJaxm0+wK717RJukoUABCDQSwKNFLWJ64Ga7C9QVtlfeUjDI0f1L3xre9nFyAsC9SEwPjEpy8TBBckUkBlBGYjUxTNJWuMTa0Qmo1Mg9fdL1N8fjP4ePj9H22jbsNiE64TIhoxLhJl/kN+CXWkLtHN969NElAQCEIBAywQaKWpjV4OUpQRR23Iv4UUINISAJ/LGpx0ujBri0vpeiRXU31wv3Blaa7Mi2IrUt9KK3BRvxrWn4jJ9UmSVEsyiW4LVc967p0zLR2LrsDfnnSYzdYrg0JB+RDUgAIF6EmikqC2z1OJ+UM/OSKkg0G0CzpbLlKiNrKy20qV99BPf/fDZeGPt6MvruSl4Fl4VtCVzohSWSfbOUfcFDEHrZ+e5IygR+6EwDJknupXITVwguk2X9CEAAQj0l8DwiFp8avvb08gdAjUg4IfxWnhPudCziNqR2wp88aP5RfOztVlqSy+oxYwsJ0thHrJ3rxwxZ9rqF+yJ6vHpa/zQhZ6AP+Fu7g/UoNtRBAhAoEcEGilqg3A8RD/oUR8iGwgMDoFwbpgpuyxqcT8o8sVNC9gAR3uiNkpDE+FamR44U/kGz9PvDIRN4D2zSuQza++XM64+Sb5NpJfB6ZuUFAIQaJtAM0WtwpI5BgxRcUms7T5DAhAYbAK+L+x8+/F+Xpza8J2U65ISkKuft0M2eB90MX1ho411VfcDlc5qWR9HZ0lZlm1COyNsPfeF14vsmpbFo3cRk3uweyqlhwAEKhJorKj1OJjCFl/air2DxyHQWALJ8X5SRTMEoPGZ3FDYJs8X+NMqMbtl5yJZFrs6OPrUmuG89MuutggMof/t1ObzlBD2w7wEFuIls5Jwho1tQyoGAQhAIE2g0aKWxoYABCAwbARsrhDDxoD6QgACw0kAUTuc7U6tIQCBRhKwx6ttZFWpFAQgAAGDAKKWLgEBCECgKQQi314uiDWlRakHBCBQgQCitgIsHoUABCBQTwLRJ3NLvlhWz8JTKghAAAIdIYCo7QhGEoEABCAAAQhAAAIQ6CcBRG0/6ZM3BCAAAQhAAAIQgEBHCCBqO4KRRCAAAQhAAAIQgAAE+kkAUdtP+uQNAQhAAAIQgAAEINARAojajmAkEQhAAAIQgAAEIACBfhJA1PaTPnlDAAIQgAAEIAABCHSEAKK2IxhJBAIQgAAEIAABCECgnwQQtf2kT94QgAAEIAABCEAAAh0hgKjtCEYSgQAEIAABCEAAAhDoJwFEbT/pkzcEIAABCEAAAhCAQEcIDKSoXXTCsztSeRKBAAQgAAEIQAACEGgGgYEUtc1ATy0gAAEIQAACEIAABDpFAFHbKZKkAwEIQAACEIAABCDQNwKI2r6hJ2MIQAACEIAABCAAgU4RQNR2iiTpQAACEIAABCAAAQj0jQCitm/oyRgCEIAABCAAAQhAoFMEELWdIkk6EIAABCAAAQhAAAJ9I4Co7Rt6MoYABCAAAQhAAAIQ6BQBRG2nSJIOBCAAAQhAAAIQgEDfCCBq+4aejCEAAQhAAAIQgAAEOkUAUdspkqQDAQhAAAIQgAAEINA3AojavqEnYwhAAAIQgAAEIACBThFA1HaKJOlAAAIQgAAEIAABCPSNAKK2b+jJGAIQgAAEIAABCECgUwQQtZ0iSToQgAAEIAABCEAAAn0jgKjtG3oyhgAEmkRgfOJaWTayXTas3ShTjhUbn5iUZbJJLpz8suMbFR6bt0oumlgkuyYvluv3VHhv4B+dL+dcukYW7Fwv667b3fHa+O0sN3SnzSyl7XV+LQM7dY1cuVxkywXrZduvWk6FFyHQFoGhELX+pDBvlkxtnpANWyvy8heGpXKE9tq+7dUny7GVl8vqJXNSmbdUnorF53EIQEAncLqsvnqFjMlu2XK+Wnxz4IytvEyN17lqzjhPzRluKzSiti49DVHbl5ZA1PYFO5mmCTRb1KpBdsXy+TIrrHN1EakWwKvUAhgl0LKwDSbZxWlN66dWvUx0YQhAoHUCnqg9TUb2zpGZ2/I2uWq8XqLG61xvfLqL2lbKhKW2FWrGJkXN0XKj3k6I2naptvT+kIpafwO8cGelE5qW+PKSE4HGitrI0qJTqC4g1QJ4ya/LLZdFx4maON17e4VOrN6bWCzfnIzSiaxFIq1YfZ1alocgAAELgWDsjezdq05f7rGPYW8zfIrI92S+yG2I2np3o8DwgKitQSshap3djmrQWo0tQsNF7YxsmZyW8dB9oLqozbZ74kZQfHxZ2GM0l4ZOlKmxvZOKQaDjBAJRK5s3iSw/TWYs/qaeG8H49A2ya6ESvylRm2xGg2Kl5wDT9zH6/4bp0zTXI/OdxKfW7jvpYHU0TqQk2nDbfGpNd6o9hj+v+ffU5j0qyyafjXfy5GTJjsTO+XfJCb7rR/BjbuhNQ0T675a879otYyepjYf2E8ynGrM7F9v9in1mIjcV+H9mXMZCVtZ28uuolcU0evgbpWn5SMrfOuqL+omB0cdUnltkReh3/SP/BGHBLtP9zZZO/sAp5Bz3mVtlZCK/rbzU/VOGeVE+ql9vFllW6lObPbVM1sDghMRaP3/jEnEyGJl91E/D1kcL8i7s96qO1r/vkJPNE9hKxq6OT24kqAg0VtTGrdtRAakNJnMxKO1O5oKI60EpMh6AQMcJJALglqOUn/vorekLP/58MSrbLrhZjrp4jYxsSyy1YyvXyMl3ro8vXfmL+khyYmMVtcqXPxFn4aI6kwjJlPuBTWiVXPYKBMos2RGLc+1UyHw3k1boZvGgXp41IpORr7FZ3kgU7NXyc2igWPBpgj6clyW+n6DaZUJkQ3RhLvz7THwPIi/vMkutWC+NlV2+CgSbvgFJyme+G4hfSTHJvO8kasNTBO3ORixAw/XGetQdbxryfcSTVirhHK+Xqu6R4Pf75ajcoW0Azb6fiD7tvUzXCNdAfe00+oGtfunfZQV8uiyR65DZRy15q3qtlvX+PZvxCaPfe+5H8bgw80yfvOJ+4DAH9PARRK0zbF2UtmKlzYra2KLiXAYehAAE2iOgLVD3hQJWuzDmLVDnyqfUrXklhtTCpovaTL6GmLCKWjMaQuYdPfpBsCCnhbRFeMcFsQk6rZSGiPUW//Fpw8pXYrH0BdvCyE0jK8qd2sKv82hGCBeLAdNCnZd3mahV0Q+8/JWVNIlK4b2jrPQfyokKUbKRSLdznpXU+L2DqE2zTshm8jPKbm1Xp4bxHjI4x5sJw0dZt6Dm8SlxP8hr71S9czZekfXWf9a6EY2ifGQ3al4t89jmYUqV1WVjiU+tc4/r9oOIWhfCqaOlVgStkYl+lFHZ4utSYJ6BAATsBNJiIy0IdLGTFZjx4piKYpLMB3nuB6lwXYWi1lt8leV1dGtoPQ4Ex0jehbbYqpwTQim1GOdfVvXdKLRj+ChaTMwvPlJ1cIWwQc+zJGYEdXbjb1q5s2G6HESteOlqriZWgakVPCOC05VKtXPUBpZIGqm+5SBq88SprV+NT18Thisz6uY07As4WwWc4RaQx6dE1AZuPVG5zc2XOh0JGaaeM/p42uVBr2xkmbW7MLgI//x+r7laWNZrLLVOna5nDyFqS1Dr/kedvNQVD058cHrW2ckIAuILHM+nNvTP8xbNVSKf8XwdPeFx4l3yF/4RuClqQyGgj1cXS60Zz7RE1AbHuJ77gxKqY1rZbE3XgqjNFche+tFmW1u4bZbayvFfHUTtf77ac6PwQqhFfpN2S21rojYQJZGV2hMvJ9z9lvxQbTUXtZ7lOfbP9cqq+qxrnOMkVF0O5xqIWr1+ktrkpdvRPpu1IGqt/V71x4z1VdsYpsaI7Vnm2n4RQNQWke+UP65KZ/XzdsiGOBC4tlNG1Par75PvUBKw++SdcPd6mTnl9SIboyNpQ9TahFk3RK1qk0h03XKU5wrxyYIPCFR3Pyj60IPdnzHrftApUZtYIG0XoDoran3B7m9e7pczrjpJvv3Wgg8EdMv9wLyYZvgNZ/xU/fFpO073fqf66qcvlgfOnFQC3TX+uk3w2dwPzA92WCy1VncSz7d4OvfjC07uB36doxOTT4qs8k4qdL92vT/aJjC7qC1yP7D9rdD6aox7LLX1WkiGV9TGgjX/0oMtLFjSfOGxo0M6mZuTWh8g+kG9BgSlaToBiw+kb5kblX0zt8q6+MtehqjNCJ1oY9pZ9wOfvm8xnpY7RhZpItveLpUuioVuVKk5R99wm+4A0dxW4n6QdpmwlDNy3zKs3F4M8e+FcYDtl6/mZC7ZZQW1g1CLxaESgrumZfFouWWzIxfFtEuEgVBT0TS+Efk0RxeatAvDxqUpr9jmRbGIbuD7vVNmlozKt3XXhypWZj/94KNA8Smki6U29MNdLFpYy3gdbO2iWHIhMKihX7/RGZGR6eAUJaq4hZHPNr5kaBe10QnNmO4+oFj5F8XEiIRh9nvTKGVucDNuNE2fQ+tdv+EVtbaJ1mgrJ1HrkE48oFLpd8A3t959i9JBoIYEbBd7It/V7OWYzKWt2J9WC2Gk+QLqn0/ND/2kPiUav2P7TG4ggMam3D6fmxuiySZQUvcDvOYp8KdVInTLzkWyzLgolhaWdt/jVMNHIsAP+ZSEvUqHAwvrHH7oZt/2ICRTkleBP68vKoKP7GRCemmfyc1uAIq7p+m/GZXX1q554b9MDsnHgDxjShA2K3aF8R7W71uo/3pic9vomuynlK3izuV4voSzk6j1Cmr4aHsblttGZXVpSC/TnzfHqJRTP5+nwUhETyNP1HovmnkbG1IVqcT/Mft9Jj9z7U42KFz+7v+U33xRm8M4noTavKjVqXT63xUoAQQgUA8CkVuB67FyP0vtlbXkOD/Pp7bHxW7UMXGe+LxUd6HpMWCyg0ANCAytqI124e0e/3cqnRr0BYoAAQjUgUB0nGm5UV+H4qXK4ImrM+/X3DYsJayFqC2y4NWOammB7AJdbTAuVV/ATH3goTQpHoBAowgMrahtVCtSGQhAoCEEmiW+/Eapg6htlN/jIFnyGzIsqcbAEEDUDkxTUVAIQKDJBPIuBQ18nfsqaiM/yopfQasp9CiWaifDS9a0qhQLAi0RQNS2hI2XIAABCEAAAhCAAATqRABRW6fWoCwQgAAEIAABCEAAAi0RQNS2hI2XIAABCEAAAhCAAATqRABRW6fWoCwQgAAEIAABCEAAAi0RQNS2hI2XIAABCEAAAhCAAATqRABRW6fWoCwQgAAEIAABCEAAAi0RQNS2hI2XIAABCEAAAhCAAATqRABRW6fWoCwQgAAEIAABCEAAAi0RQNS2hI2XIAABCEAAAhCAAATqRABRW6fWoCwQgAAEIAABCEAAAi0RGEhRu+iEZ7dUWV6CAAQgAAEIQAACEGgmgYEUtc1sCmoFAQhAAAIQgAAEINAqAURtq+R4DwIQgAAEIAABCECgNgQQtbVpCgoCAQhAAAIQgAAEINAqAURtq+R4DwIQgAAEIAABCECgNgQQtbVpCgoCAQhAAAIQgAAEINAqAURtq+R4DwIQgAAEIAABCECgNgQQtbVpCgoCAQhAAAIQgAAEINAqAURtq+R4DwIQgAAEIAABCECgNgQQtbVpCgoCAQhAAAIQgAAEINAqAURtq+R4DwIQgAAEIAABCECgNgQQtbVpCgoCAQhAAAIQgAAEINAqAURtq+R4DwIQgAAEIAABCECgNgQQtbVpCgoCAQhAAAIQgAAEINAqAURtq+R4DwIQgAAEIAABCECgNgQQtbVpCgoCAQhAoEUCp66RK5aL3HTBetn2K/c0xieulWVyg1w4+WX3l3rw5PjEpCwbuV02rN0oU3n5+XUelTsmL5br9/SgUGYW81bJRRNLZWbzhGzY2r/8j1BZT/WrDH2oNllCoIjAcIhaf/KbL7PMwa9+f6X6feZnz6bWJ/lwovMmmn3b18u663YnyWt/C365V3b0a0JmXEBgKAmcLquvXiFjZt3bGfN14Iio7X0r9FXUBv1YELO9b3dyrDWBIRC18+WcS9bI4rlBO6R2tF0Qtb7lY54nnw1RmxG0Ub9A2NZ6hFC4hhFoqBhomKg1O93Yystl9cJ7ii23DeuphdXx15NFsgujyDC1OnV1INB4UTu28jJZvSRUtIao9SfKJXNEOmWl0SzCpqiN85LdsuV8dUQoSmxfqsS2yj5j0XVoOB6BAARaIYCo1anV1f0AUVvStxG1rQx+3hkCAs0WtZF1dO9e2Tdnjpi+R5HQ7IyoVIvlVepYc5bKa6/KyxCrNgHt+43NQ9QOwTijirUh4CJq06c7mROesC7R+A3+qzarm0WWj1t0zAAAIABJREFUKb/WLQV+rcnmNngrPfcE+S7YpTa9o2v8ucH/2Zv1LW0lbxHD9UJt5rfICuVTm3a3KjIEiH+65dXxLjnhg958Z6tH8DuzrhnjgXl6pdXTr59frh/Fm/+4C0XPGdbp6J0N06cFxoqoXXwjgvZj5Ltv+ybZtXCFLNhpuItpr0Ti3+cVzdl3Lk5bSyOhufkeWbB8qb/e+P3C6w+nJC5w8e9032eTRYGhxWwfP72ojubpo6XvSAv1r83wpSAQKCHQYFEbLUze8f6tMjIR+NHp7geZSdeD1aLVNlpkpjavlxk1gWUtsIllNtUmtkmHbgsBCHSJQJmoDTenU5rQC0WAaD7ymYtMsVAIRYz1spZKe0JkQ3QpK/bJPE9dNPJeSMT01Obod0F5RzqRt5FOLI60Oc//3cKdyTG/6Tcaiyatnnl85mliKzqZkkigB5zlRq3uE4vlm5PBxbBE1AYX2KzuBzZRmzIShHPuTLYtZ2K+Xl6By1iRcSN6JmkXVSjTWhobUaI6anN+PM+HbfygWSbdlcBSbnM0WCy1wXomqXsaQbn3JBstix8wxpUuTTUk2xcCjRW16YnqGaEVNS1q09YOjX9FYZu2wirLQujDm5kkLT683FrtS78n06ElYL8oFo3DjKgLOaVEVd7Rb2W/1kC8JBZCi+AxBV2Leef5pKbdDzyheZrMfCgdTSAlMP05bDRzwTXFLa+M+u+l2Ce0ZVFrRkyILMuhJdPubmG2Q3Zw+O+NbE/79FpFreHnaovQYBHj49OGlTi2iOdEs8gwztuspTcPrdZ/aKcLKj5wBBopamMLRLw7jlwDikKf6JbUImuL0cYZy0VibdFFbSKgo4thyeLaGfeHget7FBgCfSBQbKn1Fv3x6WvSUUu8UvoiYlS2eeLIG/OnTGcvLTmJ2qyoTsZ/4n6gR01JCdIW8/bmn4xw8i2iWkiv3Mus6sFoo58ntvS6q5MqK5/QWjtyW2CdjS/VWowILYtaw5UidpeI7jEog8PItsg6HHU/R1Frhj5zFrVGqLVUP8k5wfOLVrAOWfMO+6cxqpI+Lb7BpZX692GgkiUEWiLQQFGb9YfLkMmzxMYXvdwjEuRae6NMfWF9v5wRhhHSBWxs4cUFoaXOy0sQqE6gf6I2Gu/J6YzdUuv51PZP1CphVBTrtoOiNmg7bb7W5uVhE7Ujt1WMdYuorT70eWMoCAyxqFVuApoPlz+5htEICnfImV1wcNkr98cQtbrPbiyIEbVDMdioZB0IFItaJ/eDoiP4JTM5F8Vs1sAWRW3e8X9u3qGPauZjBqa7g+nnammvHFGbtfhawk0V3diPrJexm0B0UayiT62DpXax7s/qVzHrt2zW3Hps3xFLbdZ/2GmUtOR+MC9wjWuh/k5l4iEI1IBAA0WtjarN/SD/2Ce5DGB3JShuN/s71ktpYUK4H9RgJFCEISHQ+kWx5MtR4dwRX3pS6Bwuilmtj+qWfiX3g8yFK7e8o/Lpl91sF8Xii0VaxICxlWvk5DvXB1/tityt9I14eML1vdTlK2+zb7koFl3aUrxWP2+HbIg+TlMiapOoC5qPaU70g9TX0QyfWi8d70M86bI6XhTrivtBwjR1v8LkY47OKhfFdF/guP6JZZiLYkMy9Q1JNYdY1IY75JSV1XQ7SMJ0uX/5q0AIZy6Kubs5DEl/pJoQ6DKBMlEbWu788HxRUWzj1NgUeyLvtlFZXRjSK+1Pmw0l5eBT6xeplbx18RvUyxPTfugww7qpf0DGf1B314pEoh++LPkaYyoqQIjNdM1Kbd4z/rtp/1FzA5Cqc0lIr0JR65UtdjMLChpFrHEJ6ZVKu0OWWr8QmbVB3xBYhkSO1bs0jJolL5f6d3lQkjwEOkZgSERti7x064sZ67DFJHkNAhBoKAGni2IDXveyW/kDWb3yi2IDWS3nQg97/Z1B8eAAEEDUFjVStKOvGOJrANqdIkIAAh0mMChf52qr2k0UtUW+vm3BGpCXh73+A9JMFNONAKLWjRNPQQACEAgJeJats+SBtcmXqgL/1FmZ+K2NQzboolaV/6KjbtaiS1g+ttG4RtMqZKu/F5kHw02TW32o6oaoHarmprIQgEAnCGRD+Q2Jf/ygi1pbLN5hEnTDXv9ODH7SqDUBRG2tm4fCQQACEIAABCAAAQi4EEDUulDiGQhAAAIQgAAEIACBWhNA1Na6eSgcBCAAAQhAAAIQgIALAUStCyWegQAEIAABCEAAAhCoNQFEba2bh8JBAAIQgAAEIAABCLgQQNS6UOIZCEAAAhCAAAQgAIFaE0DU1rp5KBwEIAABCEAAAhCAgAsBRK0LJZ6BAAQgAAEIQAACEKg1AURtrZuHwkEAAhCAAAQgAAEIuBBA1LpQ4hkIQAACEIAABCAAgVoTGEhRu+iEZ9caKoWDAAQgAAEIQAACEOgtgYEUtb1FRG4QgAAEIAABCEAAAnUngKitewtRPghAAAIQgAAEIACBUgKI2lJEPAABCEAAAhCAAAQgUHcCiNq6txDlgwAEIAABCEAAAhAoJYCoLUXEAxCAAAQgAAEIQAACdSeAqK17C1E+CEAAAhCAAAQgAIFSAojaUkQ8AAEIQAACEIAABCBQdwKI2rq3EOWDAAQgAAEIQAACECglgKgtRcQDEIAABCAAAQhAAAJ1J4CorXsLUT4IQAACEIAABCAAgVICiNpSRDwAAQhAAAIQgAAEIFB3AojaurcQ5YMABCAAAQhAAAIQKCWAqC1FxAMQgAAEIAABCEAAAnUngKitewtRPghAAAIQgAAEIACBUgKI2lJEPAABCEBAI3DqGrly+ajsmLxYrt/TDpn5cs6la2TBzvWy7rrd7STk9m5L5e5xGd1q0tpT81bJRROLZFfb7dZa9nV+a3xiUpbJJrlw8ssVijkAfcNv86Uys3lCNmytULV+PKrG5xVqXrmD/tkW/caK2rGVl8nqJXMzcPZtty8gYysvV8/Pkby/F1L2F4v52Uf26JPE6bL66hUypj+193bZsHajTFVqQks6/vu7ZcsF62Xbr7x/q2euUnnNMhNWz5yvnqmUHw9DoEkE8sbPXneR2pI4tDHsvCgYn7hWiZMb7OKkpXJ3vox9602I2lz0iNq+9cokY0RtRxoBURvu5I4IcXZN1OYJ38rCFlHbkZ5PIkNKIBg/Ylpu/AVlvsxKbUS7jajzgrFQ1LZUHbcy+kaEhTtb2KS3VKjWXuqZqHVj1loluvNWY0VtS7hU+12iTlB29egEJa+MvmYQDFEV27Cxotaf3OfNKra8WoRmK6I2svJK0YKo8lot6+MjkPgdz8JaxXoai/CC91yeqdhReBwCzSCQI2q9ysVHleepceofeXT5p/PiB1Fb0GSI2uGz1LY0ghG1LWGryUuNF7VTmwsWqPg47lYZmQhcA9oRtVXe9XfG81SGVS21kWAtes/lmZp0QIoBgd4SKBC1qiBpURgtbptk18IVsniOyJRn4RXdglLkzvBJkVVr/PfMHz+drTZRa7gOpcZ5kNdIjguVl0e5+4Fh+cmcVAV1Tfx8kzJuG10TzFneT1yugNFi3dPLcU6LyrpFVsTpBnOo+L7GETfbvJpxL7MYFBLDgV9g2bH5Hlmw3PSpLeLt8Qx8TaMyRmUx84/LaPD0ctbLb74X9AP3ERAZa6I3Uu9Hlr3JaVXupRKdPmbXQKPPKnZ+/cp8akv7SlCqdBnTbj0Rzw3Tp/nufsGPYaAxGRr9KV47g45Y7DZkbmTi/ydrfqqNStsvcFPM43+FsqzelOGvt3EwnpI5QSu/f1qk3lduhPI/A6Nc8qMY+elafMK19wL3w+H+abyo1Zs3X3Qmg7yKMI3STk+e4W9LJ1lvPLbgU2sZdGl/WpVu3jNVLMLDPS6ofWMJFIva9DF6JNiMhbPwWDAQSXKjbTNtiljz/9l3/QV8JJonOixqLZbp7AlXsggnAioo58g3kuPZVtwPorxi0aWdnMV5WfyAg/f2aHcIwnaalcynwZw8rZ2CReJVb8sy3qGoVUI+LQzVexMiG6JLVZnLSHYLfIZR1UtM6vnVz9shG6JLhSabiJ+2rgQieiZz3yLddqFQKzpptPaVwDCjr5kZNwbDTzQSpMk7Yf+aie6fmG2i/j6xWL45Gdw9saVfeGnTKmo9wa8J6Ywvq91S6/ephfckLjYmk8iFKcU/3Q/N8o+tXCMn37k+uHBqitPMPGPvV50/nRnsyb+hotZiPQjbyS5a2xO16Z2j1iGMScImfqvu1L2Ob72Upl8UiwZXpm9WdHUY7L5N6SFgIVAsav2F5ZRp+Yh/gTOcRx40boXnitqc58NSpAWq98v0IuULkNGt6UteFY/Mq1hq7c+aC7opOoLKmAKtZVGbutRmy8tYyPN4pH6f08bGuy68s21mG1RlmxXvHU+snSYzH0pHzGjNlzUqg1FP60XAtEjMa6eycuT2FT16h893VLbFF5bDPq75p1p56uOpqL9H6aeMMyUuPDmiNh0NwdLnMz61HmvVfkZkghQ360UvvY1KyloqagPhe6Wan5IL5vZ+NcxTf0NFrdmk2hGT1TranqhN56YLaj0iQfqpRAhXuHVt6am6UM5ztUg/U+24a5gHB3VvIoHqltrMhZEcUZu1imn8rIIjvciZR8vJ2+5zhLuoDeapkW2mRdkuas2wY90Utem8DCGQ2nTo/TN4buQ2Nb/dF4or82TKEDguvPPFnuG2oIpiWh9T9bCenoXlr3I50ZJO2qptXixKi1qvzuPT12RCyBWL2oK+oovaXINLwsaajzGe4nYxuTikn5mxct0P9M2Fg6h1aT+rG4Bt4+FFSrIYmFxErbc50sV17nho4tztVqchEbWhZcEP8WWzVnZS1Aa7Kf8mdZG/jzZIKltrU22bTK7dcq9w60o8BYFBIFAsatOLvv0YMjgtsfmm5sVAzcszK2ptgqMKVURtNVFbxtsmwiK/2MSI4GCptVoxq7Rs5Ku6T/MhtQmmPovalBUxWz8XURu8pRmHInGbsVI68OuoqFVW6CIXPhdRGxY5dVE8smw7idrABWN8OnD98cb7CXe/pUcXWx141+CRhopaw+dJj9vacUtt2ucnNRg1l4DxiTUik0mM2FatpykfHNWBbJba4mew1NZg3FGEvhEoELWZRclV1OY8F9Yx3wpmcT9oMyxWVVG72HStCOfKxOfSfmTaN0uti/uB5ATcN46HXVwmsm1na2sHURtytftauwyGrP+v79Kgh6ezniBkLbXLRrYbodfsLiZJqfLcaoL844uLDq4y7qI2zF0fk2MtfDyjU6LWZG1rsgqiNnjdaFNHUevfmVkl8pm198sZV50k335rFJ/epR81/5nmilrrxwfyjvHyLLXJbjHfChpOCNYbzsnRXq7frSayc49dtH5ovZTm/V07qsn78ERhyLHm93VqCIFgIbHEqQ3Gpzk/uInaIr/L7IUlvRFs/qJLRVLRDfQNuiEiLO3pLmrVy+GJ0ve0CDF5F8XK3A8yl1xCf2HfHWCrveNly2oT0Nnf5V4U0wR60J76qVx0oqW1cXhals/bcjFJVcUst+3DPTbxli23Z5RIXxRK+0safcXw84zWlCruB9ElYr3OriEpvdPHdF8xL4qFa6GkL0DrBp1SUWu5DBdFBNj2q/L0Mz2tJVFrjyKS7VPZ9kvKGpXE8KnVLr2VitrcTYLH4fUiO6dl8ehdFb8C1/xFoKGiVvdrjRqx6JJUnqi1TITWhSQMzxX/LSuebWI0LZSTMpeHIUt/vSwjuC0XxVqJ6tD87k8Nh49AMtZTdbf6NTqI2lw/PzUH3KBCSL0iCa2k55cb0ivju2fc1ncJ6ZUKBeTlGqZxtMVtwpgrpjavl5lT9E/3ullqUydU3kZ9o8i53qWhguPaVkWtVyPTH9Y2v6UNCTkhkQp520Wt+cXGfdvNMGiqgFq66egARqgmrd/px8rWcWmUdWrzJpHl2odEHCy1frpGOl75/HBtZSG9SvuKl3h27S2MjuC9krkopo8Z815K1ohUuLa1KGrz289Y6/V5o9RSmy17aq23vJ/04bR+CfSEuH8FcYgm+oaK2g61YDz4exE1wE1Ad6hmJAMBCEDAQqDYlcIZmSdUTsSK5MzLt2wr69vGdHQE9/d5cpgIZMKLDVPlS+qKqC0CFO1Mq9xObbVzRQK6ldi1rebJexCAAAR0Ag5+kS7AvEX3jAcurvRhAZd0m/uMMmpc+utyix9Kjh8IFBGwn57ALCCAqKUnQAACEBhGAmrTftFRN2vhncLToikjLu8wsqHOEKgrgchdIxUPuK6F7X25ELW9Z06OEIAABPpPwBZ7sxenUv2vOSWAwAASiO4DuMetHsBKtl1kRG3bCEkAAhCAAAQgAAEIQKDfBBC1/W4B8ocABCAAAQhAAAIQaJsAorZthCQAAQhAAAIQgAAEINBvAojafrcA+UMAAhCAAAQgAAEItE0AUds2QhKAAAQgAAEIQAACEOg3AURtv1uA/CEAAQhAAAIQgAAE2iaAqG0bIQlAAAIQgAAEIAABCPSbAKK23y1A/hCAAAQgAAEIQAACbRNA1LaNkAQgAAEIQAACEIAABPpNAFHb7xYgfwhAAAIQgAAEIACBtgkMpKhddMKz2644CUAAAhCAAAQgAAEINIfAQIra5uCnJhCAAAQgAAEIQAACnSCAqO0ERdKAAAQgAAEIQAACEOgrAURtX/GTOQQgAAEIQAACEIBAJwggajtBkTQgAAEIQAACEIAABPpKAFHbV/xkDgEIQAACEIAABCDQCQKI2k5QJA0IQAACEIAABCAAgb4SQNT2FT+ZQwACEIAABCAAAQh0ggCithMUSQMCEIAABCAAAQhAoK8EELV9xU/mEIAABCAAAQhAAAKdIICo7QRF0oAABCAAAQhAAAIQ6CsBRG1f8ZM5BCAAAQhAAAIQgEAnCCBqO0GRNCAAAQhAAAIQgAAE+koAUdtX/GQOAQhAAAIQgAAEINAJAojaTlAkDQhAAAIQgAAEIACBvhJA1PYVP5lDAAIQEBmfuFaWjWyXDWs3ylTdgcxbJRdNLJWZzefJhq2/aqO08+WcS9bIgl3rZd11u9tIx/HVlsqtynipKuPOHpXRsSqZx05dI1cuF9ly/nrZViGN8YlJWSab5MLJL1d4q7ePDszYaKl/9ZblMOTWWFE7tvIyWb1kbqYN9223TE7+hDBfe3a3bLlATQ6u83Xm/TCpPdFkcbqsvnqFjOX1qL23D8ZiNgwjgjo2nEDOWIzHan+q38uF2xcy87L1tM6NNhwdW7w7L2rHVl4uqxfeY59PWyo3orY/IyLJtZdjo626ttS/2sqRly0Ehl7U2id4RC2jBQLNJBCIWtk8oayMzaxhWa3s1jnF5Sq18Z5Vce4ry6zw7z0WtS2V1U3UForplvKt+FKDLbUVSfiP+0athTv7bCxirmml7dp9p7Gi1t/dzZslhdYHzcLqbKWwEPcntCVzRCpZexKL0dQQL7DtdmDeh0A1Aiw0+UfOgchc/GCvjqMRtdX6bsHTiNoUHERtx3rWwCXUeFE7lev3FezAFystWk2MZts4ErVVhHFsIa4khAeuf1FgCNSMQImo9Y8QF8muzffIguVL5QhRlsvQTzHevIY1ymxGw+PHI6Iaa2PbfDeGEj7jb8LlhtC3MRF720bXJK4CFjelaPMepKfKullkWYlvZaEfpRJHV6j3b/LrHFkpN8muhSv8udKv830ho8mL5fo9kYXXbOa9smPykyKrwjnW+HMwL8+z+tSmT8+8dLx8vASCvEa+ke/fWu5+oNo2Tk8labTZvu1BXRMf2sRSa28LbR2J6ljgTma6xaXXjLK8EoittHvEb2xWmI7qe1tkRcanNtvPNd/pSDxPTis/cG98BD/mWEiXz/u7lkbBOLFNFpmxEfo457aHtzHTPQ/19ijM23Hcme6G0TiP5g6vfx3tjaP5EqEOGK2XmVNs/tlBv5Yb2/VRr9lU26fiNF7U6lzTE4huKd0ksjzxea0iTr30rQtWkViNB5Y+YfepB5AtBIaKgIuoVYu1IUwyYin2nwvdGPQFzRdgxVZPMz2bqPUW5kQsBOUe0e4E+OJvRPPHj+eVRIjbRULB5aBUPSLBZsxTmbrquRTxNY/ys5bajOD2BcRoKGw7LGotPpCRoE7WgES0JsIsWw439wP13oTIhuhSltmHwk1EvHnYahfyGR9Tp3bPKbNxwpjfz0PBFQk6bXwE69+0tvkzjv7VO6tlfeDuYxsnnnFpJv90wCZqM4yMsWG11JbmHY5Zf9xFAtMYd5k0tDa1/c1wdbL2k2gjWeUez1DN2dUq21BRm3ROE0c8WZk7NuPBfAtvFnDexYs8C3D8PBfEqvVWnoZA2wTsF8Vi8Wi97OG9c5rM6BY+VQ5dgHkL7/j0Nelb/HlHwimhFlTIKmoNN4DUgpgnLFOWVjus4hvvnvhRdf2QZx0NBZ0pOHJFbbGQz4jwUPjH0Q/8dEdlW+oGv5tPa1TTKpbaNPMoBYvwtoguUzS5iVqzPVrIq6Ddi6If5B3Hp/tCXj/XThEsfde3AGvizc416ueTapwYlvYS1wmrqDX6pMnfVl+vrrl5+4LS3n9TaReV1UHUBqzSc4l17mh7nhveBBoqas0G1Y7IIiGpi1o9SoF/WUK937JbgC6obZcu8KUd3uFGzftPwMVSW3xEnaqDP0/8KPBFzQZbUY+aVtOsxTVP1JqhrjKL6ynT2Ysw7Ypai6U2E84qR1gFR+sz9rBSVjFkWGrzosgoQK6nZ+6iNsh7ZJt55GsXmiaD1kVt1l3DtAoX5uW1r2r3j5ih3xyEYWbTZWzMTFeMbD9XYb+s+RhjKvck0uKqEWeSf7qQ536gh4ErF7UleWuitnDcadb0TJ90ErXBZjgR1/omsv+zYxNKMCSiNrwN6Yf4igaPTVxqgrRlUauy8BcWz58m616QuCoUHxE2oXNRBwjUj0Crota0IOo1yxNI2drnWUnzfGpzF25PXHRD1KZEU46V1CZqW3JJsIhaW50qdKI6i9rInzY5BWxBQHdd1Bb182Bty1qEc8ZUZh0M6jtyW7XII50UtcV5Z91hvK5n71OJfkif/uob4nwu8dj1GJ14l/xFjeMEVxh+tXi0oaLW8F0KLxj4Ftj4yF/buVksta6WAd93bmKxfHMyCppeZKm15VmLfkAhIDAkBFoQtcbxqg1U0ZFr/HyBNa0lURv7miYlKrSWho/lux8EVsTkwoqrqLWLgahUZdEW0u4HhpW8Yq+sKmqzkR5MS7qdQXVLrY1Ri6JWtfsdhiuM6ddqYrPHejXdS0rGhpdoFVHrFyJd71Y+9tAZUZt2F7J3qyqiNkih2CUoj6fH/fUiGy+WB868Vk64+y1tfsSk4iBp+OPNFbWRG0GqAQ3Lae5xV+Q2kAjUfJGbf6yR9cu17O4a3sGoHgTqRaAVURsuiPPSpytjK9fIyXeuD27mh1ap7xm3vFc/b4ds8L6WlbkUlKZSWdRGx6DSoYtiYfl/mvo4jZuoLQqOXyy2TBERzqV6nRSm8Yk1IpNeNIbsZSezb7mLWnub5V0UK3M/sIu9ojZOTg8ruR9EFxBnVWz3sP+J1r62UJRB/dNuc2Y/L7PUJu2VFbUBp/npaAmqbPE4sUwWrYjaYDyqKB765avSvB1ErX7prVTU5oyf8L1z5R6ZWTIq3+aCWEeXiIaKWt1aGvHKOe43L4ylLm9F/k/FUQqyF8Vyno9FNFEPOtqLSQwCzgRaE7Ve8plxbrooxcet5pxT4M9XEtKryG8wjrAQ+fJ6c9dto7LaJaRX5otiNv9/B1FrCV0U1F7NcTeosGivSMI+6U2UH9IryyoRfY6i1rvRb/xkQ5GFDxhtlg275Gap9dsiChGZewE47U9bFD4s3e7KVzn1IQFjfXNs92z4MrVR8ELGGZ/JLeznDpZaM5xXxiCUMSaVReswwt1ZPluc3cxojPT2KMzbTdSmvj6aCRdmnDRo+aXCnlk2Gc5TGA8WEmioqO1QqzuFSulQXiQDAQhAoF0CDhfF2s2i2e/nW9eaXW9q11MChT7oPS1J4zJD1BY1abSLb+fSWOO6DBWCAATqSsDJt7euha9DuRAbdWiFxpehtRBwjcfSkQoiajuCkUQgAAEI9JKAZ1E8Sx5Y6/maBj/BJbFZ2he4elmeAcxLGS0uOupmLbZweOcBI8YANuYgFdnhQt4gVadmZUXU1qxBKA4EIAABFwLOvvwuiQ3jM7YP8CBoh7En9KzO2YuIPct6aDJC1A5NU1NRCEAAAhCAAAQg0FwCiNrmti01gwAEIAABCEAAAkNDAFE7NE1NRSEAAQhAAAIQgEBzCSBqm9u21AwCEIAABCAAAQgMDQFE7dA0NRWFAAQgAAEIQAACzSWAqG1u21IzCEAAAhCAAAQgMDQEELVD09RUFAIQgAAEIAABCDSXAKK2uW1LzSAAAQhAAAIQgMDQEEDUDk1TU1EIQAACEIAABCDQXAKI2ua2LTWDAAQgAAEIQAACQ0NgIEXtohOePTQNREUhAAEIQAACEIAABMoJDKSoLa8WT0AAAhCAAAQgAAEIDBMBRO0wtTZ1hQAEIAABCEAAAg0lgKhtaMNSLQhAAAIQgAAEIDBMBBC1w9Ta1BUCEIAABCAAAQg0lACitqENS7UgAAEIQAACEIDAMBFA1A5Ta1NXCEAAAhCAAAQg0FACiNqGNizVggAEIAABCEAAAsNEAFE7TK1NXSEAAQhAAAIQgEBDCSBqG9qwVAsCEIAABCAAAQgMEwFE7TC1NnWFAAQgAAEIQAACDSWAqG1ow1ItCEAAAhCAAAQgMEwEELXD1NrUFQIQgAAEIAABCDSUAKK2oQ1LtSAAAQhAAAIQgMAwEUDUDlNrU1cIQAACEIAABCDQUAKI2oY2LNWCAAS6SODUNXLl8lHZMXmxXL+ni/noSc9bJRdNLJJdUZ7+/5fKzObzZMPf3xA+AAAgAElEQVTWXzkWYr6cc+kaWbBzvay7brfjO3V9TNXlElWXXU2oS5uMzb6RSW5AWalxdoUaZ3f0cpy11BQB38UPbpILJ7/cUgq81BkCjRe1Yysvk9VL5ia09t4uG9ZulCmD39jKy9Vzc2Tf9jYmSH8AzpdZcdq7ZcsF62Wbv96cLquvXiFjer45ZXFr2mx6U/Hipv52lcorKUiYpCrP+ao8bhnwFAQaSMAyDlUtK4/7LonazHwlexPhjKg1+uOACrVujCpEbTeoVkgTUVsBVlcfbbCoDTuZpmd9kqaQDK0dR4SYKy9u4XvjE5OybJ7ZVpqo9RfB+dnGbEXY5qSFqO3qWCHxRhAIRK1snlDWzbBC4Rwg7WxoO8BmfOJaWTayPbXpHlu5Rk6+c31gDS4VLi6FcLPU+pv8hfdYDQAuufTmmd6JWn+zsXBnfXmU9o3esepN2xflEhh15MYqJxidL3Xt+0znq1yLFBsranWLRyL2DOYWcdiSqNXSyX1fPbNa1scLaWQZFqlqPdUsTXmCOBbqVdOuRZ+kEBDoIgGLqFW5+eNx9NY+Hh16C/FpMvOhAneGUuHigg1R60LJfKb2AqW0byBqW2n3dt6pfZ9pp3I1frehojY5fi8UqfER4q0yMhG4BlQXtcEisXiOenmPuz9NbNmtaKl1EsORqK2Ydo37KUWDQIcI2EWtPx4lPX59y+m8xIdnSrfu+nOHJO48vuuRyE2T0zKu/Fyjkx/9HT+PEbv7k++epKxLI98ocH+yuh9oPrYeoczJ0ybZtXCF5kObiNpto2uS06V4rrCccDnOIz4vuUG2yIo43WA+lWSOzJljM24Xtrm0tG5BF0mfmmnuG/7f0mWM5vtkXg3SSNYBbX6PeqDGwyx3qo/YeqxRB/PkMOqHG6ZP893hgh/djS34TTpfVcfN98iC5UZfSOWfiFp7uycPmyxMo5B5KhnXOU9Yh2PjO3vmywnGGBMp2WRF4yp048vlE7nVZVwARVInmLoLoNGvo76RYa+77OW2n75pUP3d86/VT4lVXl+fWSovsNUfv/AOze1BMs0UtXHHiwa7fZFJSCbWz+qiNnl3avMmkeWJ36yZljlZZFwhHJo2nlDUpK8vHqm0zIEXTYz40zoQ5pFmE7CIWpt/rBpDq5+3QzZEl6nMZ6yiVvnTZwTPTCx8i0Wtoh4tyHmb4zJRa7k4Fs0XNpFmuivpgroV94NoExCLHO0ES/+defEneG+Pdv8gFJKibQCsdQs2Hfo8m9mcGO2WlFE/mlZ9YkJkQ3TBJ84rcVGxWd0yv7O8Z46l8Yk1IpPRvYawnjPJZsraXsYFpEDQJv0qua+RFvDpvJPNiinyRjS3m0y7m9wLx4VNoGpi74Gz0htBr4BlFmabqFVufpn+rDGMNohp94PsuDfHY9Q3Ummn2JtpqLpNLJZvTnp3dLKW8Ez/MOcMl/o3ezLuSu2aKWotu7WEnm3gtyFqrQIyyU3f5WZErXqsdGdv7rYjq7CtO0SLYW79cUfoyigi0QEiYLko5nTCYixoVlFr3tK2W4WLYWmXPM1ylYjayNKUvn1tCo2skIotf5rPaMuiVllqk/xteRmLf56oMX5vs6T7Vj7dyuW/MyrbUpv3dP1tfsvZ9siKs6yotbuL2MuZ3+ImZ+vGJyXscvxFy8RhyMq8nZ/O3+uvygXGiDRg71dRndJ93C6KIwtywHXkNn2zUOL2YxO15mlHNBb1S9mGT63VvSjTx7I+7d5GMz6RKWTsIGpDq3S6/mqDMrq1j25PAzR1Oxa18aI23nVp4jNrje2QqI0XoYKFKWyY5AinaHdttqJ+FJYI1OSYNHtMFSxYQWQH76eaiHbsRTwGgYEhYBOn8+3jwrJhTVshLe4H8cLqAWlF1KbFwph39ByJtEJRGyyqI9vMyzF2UWuG9DJFWydFbTovY/H3RMsp0/KRTEQaXQBlxVBAKZuW9TKuejKa8/MFWnazo68TeVbZyM0k1f1LNkmmW4t+ymYVxbqwGwuFe6qfqdwdRa0Z/izVzkUGGr1ORePCd6NJfMN9bppoS4vLvHbVaOa4H6Q2bg6i1n6R28snWX+tfcPYvOonpZnNo+FGYLfu6yI+b8wOzGRay4I2U9Tq7gfxrrNIuLYharVQXYlVVvNLKzxKDNwiqghN26BK/KvsolYPJ1bdvaKW/ZZCQaBFAlmhaRNwgfDYp8WhdbHUKp/ajonaULTpMWURtUnEijxRqwSyLWRj1FlswiWaP5N52MFSG1mFTXFZ1CujdUlbE6yWWtPvsqei1rR0pytUOi7U494z49PXBL7U5kZLt6Z7/14l8hlLiM041w6K2vHp4nCdLqI23kxl7tG4WGqjzUfI2KX+Lc5yw/xaM0VteOnCi9Nqs9RmRWQ7olaznlostYmFQPelat16arsoFu/8Q38+0cMAqd6NpXaYhzh1TxOwWU+D3yW+hbYj3n6I2vDSUyRyHERtNvi7WTf7xZy+WWqd3A/sLhOZy3Wl1srkoljKRSJzUcdB1IZrTJWwUbmWOy10mpul1vLBDZtfeKrjZ0WX9+es+4ER7i6VRjQutHB4ttOIyPq+UeRczx3EEP5eHU+4e0JuOepyOVc+WfwRkA6JWpeTB3dRG0JJWYgdRa0v+ivUn+m7MoGGilrzdqjGxXqTN0/UJhbX8igKlhi03tGhfmszE8fWO/1ILkPE4rTw+MriExhWL7IUZwO4hw84+Q5W7kO8AIEBIpDjEuAvnpFPbHaBik5I2nE/KI1+oF9W8oiaF49KfGqji2bf074wlndRrMz9IOVLGLZuWdizrCiwCWgb25yLYvrln/DSmX5HwXqxx7Og6RfMfBGRGBRswsX8nfVDPIa48pDEF9w0H95UXGFzVJhpRJbb1BqQjcIRtGtyCpDNN1oTyi+KFbofhIJr2bz0iV9SJ4dx4dfZe+71MvKgyMi0RbR6bXnitOwYWSSyseSLfC2JWouAD1mnY1ErbtqYKxW11ktyygXJX+Mtedouhnl4qtR/gGbWuhS1saLWB2xemMoVdXmiNvKNdfB7Nf2MDPFsuySWFsqJgM6Nqxv3Gt231vulUT7LRTHcDuoy5ChHfwnk+bmG429WuMk0xnMU2ST+aIP1olix+0GpqM18BdAY12Wi1jLnTW1eLzOn6J/FdbPURqGW/FCF/ly2Q042LvmY7diqqE0EYhI+zTpfGfNatm6hoDIu06ajIwQhvdL+kGlDwb7tZhi0SKiFYZpshogIRhV/WpXOlp2LZFkVS234NeS0X64SoX4oObeQXvrnke2uN8aHhAr8aTPjIt4AKV/aJbNyPiMd8nYxsrQkatNrf7yeZnyB7eHerP663sYl875+8dpmCdfW6ZQeqFD//k6WA5l7s0Vtu00Sd+JeRA2oIKDbrRfvQwACQ0LALmKrV95biE+SbxMWsDo63jAItHOBsgkwh73+3W1DRG0R38gy4LKjbLedLEdR7SbJ+xCAwJATcPAzdSLkpXPm/bIuiuXq9BIPQcBCIO9YflhgDXv9u9zOiNouAyZ5CEAAAj0hoBbLi466Wbt4wzFnT7iTSQUCnTo5qJBlrR4d9vp3vzEQtd1nTA4QgAAEuk/AFme0F6dM3a8ZOTSAQHyBeUj7ZHyvZkjr36sujKjtFWnygQAEIAABCEAAAhDoGgFEbdfQkjAEIAABCEAAAhCAQK8IIGp7RZp8IAABCEAAAhCAAAS6RgBR2zW0JAwBCEAAAhCAAAQg0CsCiNpekSYfCEAAAhCAAAQgAIGuEUDUdg0tCUMAAhCAAAQgAAEI9IoAorZXpMkHAhCAAAQgAAEIQKBrBBC1XUNLwhCAAAQgAAEIQAACvSKAqO0VafKBAAQgAAEIQAACEOgaAURt19CSMAQgAAEIQAACEIBArwgMpKhddMKze8WHfCAAAQhAAAIQgAAEBoDAQIraAeBKESEAAQhAAAIQgAAEekgAUdtD2GQFAQhAAAIQgAAEINAdAoja7nAlVQhAAAIQgAAEIACBHhJA1PYQNllBAAIQgAAEIAABCHSHAKK2O1xJFQIQgAAEIAABCECghwQQtT2ETVYQgAAEIAABCEAAAt0hgKjtDldShQAEIAABCEAAAhDoIQFEbQ9hkxUEIAABCEAAAhCAQHcIIGq7w5VUIQABCEAAAhCAAAR6SABR20PYZAUBCEAAAhCAAAQg0B0CiNrucCVVCEAAAhCAAAQgAIEeEkDU9hA2WUEAAhCAAAQgAAEIdIcAorY7XEkVAhCAAAQgAAEIQKCHBBC1PYRNVhCAAAQgAAEIQAAC3SGAqO0OV1KFAAQg4ExgfOJaWTayXTas3ShTzm/18cFT18gVy0fljsmL5fo9vSjHfDnn0jWyeGaTXDj5ZecMxycmZZlUe8c58U49OG+VXDSxSHblslR1v2SNLNi1XtZdt7tTuXY/nZ73kVarFPBd/GDN+0mr1Ruy9xovasdWXiarl8xNmnXv7dmFQw2+K5fP15p+t2y5YL1s+1XF3uAP4vkyK34tSud0WX31ChnLS85WpopZ8zgEIOBCIGcs7unvgtZLUesLvXkGq6pzUDcES6G4Q9Qial3GdyvPIGpboVbXdxosasOOqulZvxGMyds6wUt1UVucDqK2rgOAcg0bgWAsyuYJ2bB12Ooe1DdrvQznylmWDX8vEZVaLKsXxslS6xs1RLacrwwZ1bNo/43Seg+opbYVMv5mSeSmVoxKreRnfWeIeHeMWX0Saqyo1S20U5vPUwuYxeyqWWj3bW/jaKeldBKhOzXEC2x9hgIlGQ4CiFqr0POF1ahs66eYKBV31XsoorY6s76+gajtK/4mZN5QUasWrqvUcb/yA8gXq+Fx1hzVjG0dPbaWTmzZbSvvJnRB6gCBXhIoEbWRsNp8jyxYvlSO8E5tQgve2MrLlSuTN2EEP5nNqP+u9074o41t8904kfAZ3/1Abgj9RRNL0bbRNYmrgMVFwH9vXuTwpMq6WWRZidXRKvQsYsI8fUrV13w++v/ktLIEJwz0d/z0RgqswQ7uBwt26saHZJ73eSqWW2RFyoc2quuG6dO0tktO4tL8vESS9s70SrN9bad+yn83L68ovbRL3F7Z4fc1N5/a8v6gu5aotA0/XbO+cfvkWKv9si7cKV+fWSovyPgmB2tfuk00akYfifp4hk84vrKnnfqJqXHamWKflKOQT277aZbZOxenx7Cqjqch/HSr1r+X0xp5xQSaKWrjzhtNGLZJVreUbhJZnvi8VrPatpCOXr6eXbSg10MAAiIuolbNF4Zg8UXpwnsSf/xwDM9EpywZQVbsp2emZxO1i5XrVCIKg3KPaCdKGZEYzysFwkx1gayoDcThyDc0wajSWv28HbIhupjki57RRCRZRa26T6BxC4T8dLwp6KyozZY53jhom4lIKCVzuqVdHN0PxifWiExGLgrZdKx5GZfbAkE7o93ZiNaPrABNRmviSpecOub0B114mX7PhW1qGxcBY7lRnXTKW7JuAWWWdZuoVRuwVFuYl/+sltqoHInLULovJYalFJ9Unzbrp96ZWCzfnPQuZpruBhb3A1sfKas/021fCDRT1GYubOlsw8lDDKuKgT/XZcFsJnP355BOvCOtejmjL12ETCHQJAJ2//ZYPMZiVXdZ8t45TWYyVq/kZr0nSsenr0nfTs8TS6ZA9IVm1lJr3sZOCeG8BTUSBQX+ocUWsby2NkSBVdSa0RAqunpUsNRGFkQzWoQp2K1C2lL2VnxqzTKU56WJRN0drlQc2TdI2f6g3EdS7V7mG5pun8xmJ8UpSGtkWzIu/PxHb82PRmETtWaED3OMWEStz3l0azqfFDP7JcJU+5T1rVR0CRu3II+R2xJhXVr/Jk2bA1SXxovaeFeoiU//d/oxQ7yz146zXN0CdFHrlA6+tAM0Pihq4wi4WGqNo+Cijas/5n8UhAQyL6X67EyradbC5j2V536gh3BKiRhPDJwybY3k4l+0KRO1sUUvnPOmLNEfLPXWj6tTF3ryLGxVLuWVCQ/tqNu6ibBYoZ1cLRwttXE7xe4e6jeaYaI0r7Ecv2VHUWtGP8j0h1QEn2Tgpk4ei9rU/1sijE3GaXGZFXmZqSLH/SAVks1B1GZdRKKcIuu23Q3Cuunwon5k1nYHS616LS1iHerfuLlzMCrUTFFrPd5PxGQwyJ8Rh9lKjvi0iAmuojY8zvTCdSXW3fx0Et+64iPCweg+lBICg0agVVFrWsH0emetWHlU8i4u9U/UqpJaRFVgzdWPxF0steat9e5ZansuaqM1JeUnHfibRtbivota2yZH64iBONyn+dlajuRja6S32VGnEx/S4hDrotf79yqRzxTFVe6gqM2cgqQGmJuoDV6x3YFxE7XBOAnnAZf6D9rU2JDyNlPUekLTvCim7VADEWvr3Jb3Shu6SjqtXSorLQIPQAACjgRaELVlfri+hVB3H8gpSoFFsCVRq/u4hlnGPpvOltrgxXSc3Bz/St3qmndRLBU9obuiNvuxiuwxdKnQ9ILiOFhqbe4OVkugeZlI5+RbapfKjBmNx+KOku5BdjcCJ3eUOCGb60O2fWJr5N0nyRVKJH/EEK1ePznh7vPklqMul3Plk8Ufg+iQqM1zNUkYVRG14VupNncUtf44mVT1n3Crv+OMxGOdJdBQUesdFahdtP7RhYib7sfqd2z9owvRQ9Gty8TiWnh5rDSdKF3TWjxAX4fpbL8jNQj0iUAroja8XDUvfboytnKNnHzn+uCLWqEf//d0waJfzDEvlhm1ryxqI4uTaNEEWr4o5hUmED3BZTHJ3GqP/HDbcT/o6EWxsK6iXZzLvShWJDQ9UVt6/B+1r2aJjlhXcT9QeQXW0j0tXRQrdD+w9QdfhEWX27LCONOmfp/0xsdJ6oherYtKvGZCYXpr3YnTsmNkkcjGkq/JtSJqbW1haWu/nBMiG/yvyzmIWn0setUsFLUFm9Qq9e/TDDfs2TZW1PoNa14Ys7kUmD5GqctbkeW26GZq2IUK09F3h56Idkhv2Hsm9YdAVwi0Jmq9omQuWJnzSeaCaiSCtRMas04lIb1yfWr9dDQ3J++/3tx126isbiWkl3o9MATMCo6njYu0U5uDCDHxRytasNS6iVotJFrEKvJbNsNHGXOuLfSSk6U21bb5bmEp307FesvORbJMi4jhnpcRhs0Pg+YW0qu0P3jRBJKoc+mQlgavTJuGvIN+nvcBotAw4+Ke14qo9dsi4qOVIeMLrK+hbqI2FW4v5etusYSbd3DizxNXqH9X5i8SLSPQbFFbVvuyvztaPsqS4e8QgAAEekLAIfpBT8rRp0zyfJb7VJwGZlvRpaRxBIa9/vVvUERtURtFlheXXWn925oSQgACDSfg5NvbWAYIjq43rYP/cdfL0M8Mhr3+/WTvmDei1hEUj0EAAhCoDwHvyPUseWBt9DEAw33A8/Nt8o93inbm/bLO96n0fkIXD93HuMn170vdyuLe9qVQPczU7ubQwwKQlQMBRK0DJB6BAAQgUDcC2Y8oDJOvfhKpJm4XPmbTtS4aX7we0lNL2yXErsEm4bYIIGrbwsfLEIAABCAAAQhAAAJ1IICorUMrUAYIQAACEIAABCAAgbYIIGrbwsfLEIAABCAAAQhAAAJ1IICorUMrUAYIQAACEIAABCAAgbYIIGrbwsfLEIAABCAAAQhAAAJ1IICorUMrUAYIQAACEIAABCAAgbYIIGrbwsfLEIAABCAAAQhAAAJ1IICorUMrUAYIQAACEIAABCAAgbYIIGrbwsfLEIAABCAAAQhAAAJ1IICorUMrUAYIQAACEIAABCAAgbYIDKSoXXTCs9uqNC9DAAIQgAAEIAABCDSLwECK2mY1AbWBAAQgAAEIQAACEGiXAKK2XYK8DwEIQAACEIAABCDQdwKI2r43AQWAAAQgAAEIQAACEGiXAKK2XYK8DwEIQAACEIAABCDQdwKI2r43AQWAAAQgAAEIQAACEGiXAKK2XYK8DwEIQAACEIAABCDQdwKI2r43AQWAAAQgAAEIQAACEGiXAKK2XYK8DwEIQAACEIAABCDQdwKI2r43AQWAAAQgAAEIQAACEGiXAKK2XYK8DwEIQAACEIAABCDQdwKI2r43AQWAAAQgAAEIQAACEGiXAKK2XYK8DwEIQAACEIAABCDQdwKI2r43AQWAAAQgAAEIQAACEGiXAKK2XYK8DwEIQAACEIAABCDQdwKI2r43AQWAAAQgkE9gfGJSls1Tf997u2xYu1GmimDNWyUXTSySXZMXy/V71IPm/9sGPV/OuXSNLNi5XtZdtztMf6nMbD5PNmz9lXPq4xPXyjK5QS6c/LLzO/V80OBRz0L2p1SnrpErlovcdMF62WbrGh3vm72oZtDei2c21b/vKv5XLh+VHdFc0As8NcijkaJ2bOVlsnrJ3Fy8U5sn1ASc/vPYysvVO3Nk3/ZwsnZtHL/jzM99OknvdFl99QoZ0590WaRSKVvSsKannrtK5TXLLNZu2XK+mmBc68ZzEGgkAcs42lPPRcqflxbeUy5mo3bqhKj101gqR2htn8xjiNr0kPj/7Z1Jjx3Hle8Pv4GsWws1HnpVnAANGxkEtSmJXhhCLwSCDzBIEPC+gOsuu+G3k2Ro2EmAVVIZ5bUabBsGHlWigYbhhUjVRjQlrSwB4lBe9YO8qJL4DfQiMjMyY8rxZlXmzfvjirzMmH4x5D9OnDiJqC1dIhC1w66eiNph+fdZeitR6y3gxyZqy8RvK2GLqO1znJDXChLI5vuRs7FV82ousjtCq2FipZUWgntRUZsIkTX53LbuqDw3f3xPdrVlVvoRcY0stcmaKSPfiPfDo8lMTN5r5+433+A0yfQ4n5mkqO0GrPXmtFsxNalS/SARo96xFDdQppO01MZY5kLXFpERodla1MYKSybzGTklyjJqjl7Ub5uynVuIjWVY9DMLWU8Lq+yBOQLMhfqieQ80KikWAsdEIJl3a7fHf3SYtf+kRa0WmxuH76euBdE//Yg4RG37AY6obc9sLCkQtSfXE6shanOR973rX5Kb52/LbJ66BiwuaiMiM9KfrfzkKsZDno99fGra28oKfHKDjpIgMBSBdDN5WLmRNIJr9/BS4pKU/olsEP1NsT3fYv6CkePAcpEdnsqYtanYEKc1c9asGkttsl7Myn1zk7bP7lZYA2PuB5YPb1Ijr+5qbbolVxyLcx3jfF3LB0rDDbqx7u6JvGLcwrJ+EdstLbY2VvWnqUdwsndTHpy7UvgY25sR7Qed/AnfO4mvqamjqYvv9pHXUTF/Xflx2h51wViz3EVautI0G0/FOzIYc9E2q/5K2qcs7bU+tXV5e+50Qd/5c6UwJsU3T2YM/1/Vd/876Ltk/Cr3Pfk45ifub+rSvjn7QLn1rW2lvu9Jl5s5lvngmmXE+T/1D7/Pg/e4nlvVfJI2ni58DXPjln3SETHgHexty9GLln98PteW26K7EqI27/TSyV5MikVFbdQinA0Wf/FodPEjH2iRv5SJ9YhP3OIW4aqK8H8QWBYC5iXjCQ2r+ma98P1I7csh6VwWZ5OcpnuUvcSLl52xehqhVuqfGkEYWmo9V4ncnSJ7AS8oas0Lff1UmYisE7XpWjqz7ibk6561/kYZa+H2neVq0cX9wLy887IswWP/pkTL7G/F/Yl4f+oLehYHn7Xqr7Ad+jfPZcR36TAned77aGO+JbJj7jyEF5Kiltpg89T2IlOT8aQFs3vq6F9ACjZL9mlhpajN8janlYH7Sygw/bLWr27J819spxcjTZ+YjZlxgbBPQ61x9f9iPuuVbhNxUas3HLmYzERxML583/hY39lzIHbi6m2MgzFhnwgH8ycUq9Ex1WXejWj5n76otQRe7IJY2hd9idpiRxkTx4GoVSWX16l+lJRae3P3Bz+PhtaO+qJ5AgJLTaCYi6G4jVornYW+zJLhvoCTF8banczVQae5JKJevOti3B/S344qbifXux944nlRn9qsVwtLqb9mVIvasiNyvx31jFVFurxcI2ly67wlrtx6VvSn5YNYbfWzo0Gsyb7jUub1UcxvOTKb/CPrGFvNdePQu9xsGJSJycqZ2+QiYN3GJiugkU+tjpxhX9x2WblzKMu3LmqCU66Zk0UZ7lgM52C1C06JqLU3Y6qafl/F3A/K+i6PGLGeXtgM+FjRRyrdeBqI2nQTq9ag32XRUrJNQbUL0riX/smL2irLadE1PYnamC9tSf8XL41yi1H10CnqXOwQ4ylsMb2IiB73UKZ2EGhPIBb1JPqisF8QyUvVFy5p2c4L0U9zXeQPN0SumbT6/188rLz4Exe15a4JQQivOgFQg8ysU8W6US1oygRBVNT6Ib38l3Cfotazkjmio7I/jWiU5Jh5tu8fSXs8Ise8BnFu6KgQe4HbhXXUHorayNF23p+WZbV2WrQYT0lekTbHxnEjUeu7rrii1j9aL5rivjdDg1HR/tjm0t5IuuIyFHkuvnL3A9sPvV7UNui7RNRG+ERC6j3hu7joSjcStd6aFRG5tcNnZA9MXNRWW077FbWW31MTn6ZGFuTy0eJcNKvdkfck2kc2eKkOBHoh4Fm2ehO12QmQvm3816fekmvyobqApcSReinNPp3L189ErGxeg3wxaOa9IzIzn74ibmy/cWpdKxOi1o3H21Dg2f0aE3vmfWC9O+ottWnZeiz5ISqbzovoeApEU42wKtuc9SRqq62G2bvNuwDuxMe1Ny2xuup6KlH+ex0DWv/9mb/L/ymNhNKvqJ19WhHfObohLbmomRvULLHfUNRq8du8/U1H1nDPTVvUxjo6yroH0eeI1HCguv5S+ngijYur/7S3nlq7vIiA9n2MFitruMFJyRA4EQLey6NW1Fpi1RUTcf+/jUN9mUi5HtxIj/j0fLymXBDs38ra6Yra2AvteNwPnPo4L8d6URteNAv9POsZxyxNDUZDmftBlWEMEI8AACAASURBVKW2qj9z94PMaOEdMxvXtdyHuIllPCL2YsfT9aI24r/bAFHxSMl46iJqI0H+01PSowYXxYqj78QKbG3SaiM+xKz5Ad9C/Mc3krrMn4v812vyz5c/kKe/+veKD4n0JWob9F0bUZt0aujm4obEK3OzadP+VgNskIcnLWqLeLV1RzFlorawvtZeIKsR0OFt3qy/rR1m/YU2M0aqRXhpnN4mFuRBhiGFQuBkCPgbPl2qf/GkieAqvSjmRw4wx9HRUIL1Pu7hsb17CcnM9Xx9WvCimL/5NkfNxSW5Gn/KbHMvTS6K1bkfRF7qUR9Lzwrqx7aNC0YluKyYr6UXxexIEdka/w/r62mllwrFjTDhcI1ZMH1xZowkVRZI3e5sfDmGEZW2iCtcfZxedhJQOp6MeLKFb+aOcMFuc+OLYtXuByY6gD2eko2EiSsdjBFzOuu98zWnZ5QBSUUn+DoSQlOPq2tyX44ursnXlSef3URt1D88Mp50e/O+ayBqg8uF9qlNIPhLrLyqT5u3/2TW6UVKmbCobeMOUCYSzQSp93utC9EVuyTmCuWivnU+smYhC0LFmJGQC+xiaNSK8kVGEWkhsCQEYvNQglvokU+4llkA85BfCkB005iuLXY0gPxiaoNNZjT6gfVlwsd3vZBSC4taNzyQ7tZgnaqz5FmnViZ9Eu7I+ohEk41DvuFIwiTpDcB/y1NRv1Zr8HWy1Kbpg7ER6x9vbY2HRQr9JR2GJcfyjuFDidlb98/LK46F2XqnVcZbtzZL9tFydI66/rS14ykqavWPXpt1/T5dk81GIb3KLbVJcd548t97br+VhRLL2lk25yKbsfiS1lHU2nyCjYqOaW/+WGK8kah156s/zoKPl5hNtirO0RmN2z/+hX7CorYH+LGQGj1kG8+iuYA+tiqQMQQgAIFjIFAfxaFJoXqNfFa+/g8V9uqHJs/zTGqB+8+Kj2nAqBDOvtV4hdg0cZtZEhyI2qqOMrvyBhaVhfs7dty0cKZkAAEIQGBoAmW+fC3rpdfIl7+Vt0f4OeOWLTmxxzfmb8pTf3k9j+F6YgUvWUG1vrtL1p621Z1S+xG1bXuf5yEAAQhAIE4gEJ7ZsbTnYwo+CIyHQHjBczx1O4maTKv9iNqTGDOUAQEIQGAlCIQxTxf+cuJKcKORQxAIv/I3RC2GKzP2RbzhatNPyYjafjiSCwQgAAEIQAACEIDAgAQQtQPCp2gIQAACEIAABCAAgX4IIGr74UguEIAABCAAAQhAAAIDEkDUDgifoiEAAQhAAAIQgAAE+iGAqO2HI7lAAAIQgAAEIAABCAxIAFE7IHyKhgAEIAABCEAAAhDohwCith+O5AIBCEAAAhCAAAQgMCABRO2A8CkaAhCAAAQgAAEIQKAfAojafjiSCwQgAAEIQAACEIDAgAQQtQPCp2gIQAACEIAABCAAgX4ILKWoPf/0c/20nlwgAAEIQAACEIAABCZBYClF7STI0wgIQAACEIAABCAAgd4IIGp7Q0lGEIAABCAAAQhAAAJDEUDUDkWeciEAAQhAAAIQgAAEeiOAqO0NJRlBAAIQgAAEIAABCAxFAFE7FHnKhQAEIAABCEAAAhDojQCitjeUZAQBCEAAAhCAAAQgMBQBRO1Q5CkXAhCAAAQgAAEIQKA3Aoja3lCSEQQgAAEIQAACEIDAUAQQtUORp1wIQAACEIAABCAAgd4IIGp7Q0lGEIAABCAAAQhAAAJDEUDUDkWeciEAAQhAAAIQgAAEeiOAqO0NJRlBAAIQgAAEIAABCAxFAFE7FHnKhQAEIAABCEAAAhDojQCitjeUZAQBCEAAAhCAAAQgMBQBRO1Q5CkXAhCAwFAETl+XV+cvyNHeL2T3zg9D1YJyIQABCPRKYJKidv3qm7J58clSUAd7c9mVLXn38pnSZx7f3Za3//iwV9hkBgEIjIHAT2TzvSuyblfl0U359c4nY6jcydQBUXsynCkFAhA4UQKI2hLciNoTHYcUBoGTIZCLObWxvWOKVCJ3LrK7SqL2ZGhTCgQgAIETJTBJURsjmFtvv/9Mdt+4IQexh17akneU9faUPJRbv9qWfU7lTnQwUhgEjpvA+tW3ZHPt9mpZZY8bKvlDAAIQGAmB1RC1mXXmCfle7u28Jn96FKNfHEke4Gc2kuFJNSDQL4FE1F48lFu/VJvWkqw35h/IK/KR7B5eUs/+KHtKbXT9NGoT7Lgw2RvmZM05Lw/s9SZ5fs1Zg+pFtucqodwkbskVVT/jLnFGfvb6lpx9cFMenLsiF1R1zfqVttXUX8Q5ffLrl//7tszmhWuGf2K1Md+RV04X4Fgr+x2f5AYBCCxGYCVEbfKSOn1KpMJvLn8BVFlyF2NNaghAYHACSgT+ZkuJv/INrlkvCkGXpTkq/G7T9UIcgZqme5Sd8hixWfjmG0Ho53v2fpn/fipoZ5Z/f75O5WtZWs6FJ/32eC4VvttFVNS+IE/Yp1SeCE/KPvdNcdKl/n9Tti03jsE7lwpAAAIrTmD6oja30moLhu1HZ/d8YQ3Bl3bFZwTNXwkChRUzFLeJOJ3ddd2UEoEnmbU2XS8kWE/U779Vv3+cRhRIXJ7W7mSuDjrNJbWxFnVBzbg/pL8dlZweBSIy65lEHHuW2gvf1V10S4V5LqBLRK0bDcFN45a7EsOERkIAAktGYPKitqkvbXqMiC/tko1fqguBhQgYcWtvZo37gRMNwRa1iSBck/2IC4NOu3H4fho5xU9zXeQPN0SumbT6/188LPXx1yJy4zC04sZE7dkHMWtvGOUhb2ep+4HtnhUTwtqaW+XGtVB3kBgCEIDAQgQmLmpTy8m68jwot8Ca40jFcdXC+iw0dEgMgYkQMOIzuxzam6iVwqL716fekmvyoRK7klhMZ5/O5etn4qLVUF1E1BqxXpxONbHUej7A4qUxFcsv1CJuJzIDaAYEJkNg2qK2yeLbyD1hMv1NQyAAAZ+AZ7WsFbWWWC3CgulMXfcD/UsqTPUlLuV6cCO1gmrBeU25INi/xTolscjO/Ggtvn9v6LsrUTHao6hNKhsrl6EFAQhAYFgCkxa1xUcYKtwK8hvMWB2GHYqUDoHjJ7B+dUue/2LbiYDii8d6UZsK0+hFsagvrnJtsi+g5mtOJKKCjSDbcEuDi2K++4Hv/xq4WXRwP9iYb4nsmKgRiNrjH62UAAEItCUwYVFrbgUrJBVuBXmIGqIetB07PA+BpSPgh7lKGuCtD01ErU4W5BVdZ8IIBolFV3/RrIm7k3WSpMvUblT7a1uRkF6+T63rT/v4bhryq/qiWLX7gR/Oi0u1Szf8qTAEJk9gwqJ28n1HAyEAgRUkQBSCFex0mgwBCDQigKhthImHIAABCIyBQFk4sTHUjTpAAAIQGJYAonZY/pQOAQhAIE5Aux68/K28vfNJ9v/ZJTGp+NQ3LCEAAQisMAFE7Qp3Pk2HAATGTCCMM+tcOBtz1akbBCAAgQEIIGoHgE6REIAABCAAAQhAAAL9EkDU9suT3CAAAQhAAAIQgAAEBiCAqB0AOkVCAAIQgAAEIAABCPRLAFHbL09ygwAEIAABCEAAAhAYgACidgDoFAkBCEAAAhCAAAQg0C8BRG2/PMkNAhCAAAQgAAEIQGAAAojaAaBTJAQgAAEIQAACEIBAvwQQtf3yJDcIQAACEIAABCAAgQEIIGoHgE6REIAABCAAAQhAAAL9EkDU9suT3CAAAQhAAAIQgAAEBiCwlKL2/NPPDYCKIiEAAQhAAAIQgAAExkpgKUXtWGFSLwhAAAIQgAAEIACBYQggaofhTqkQgAAEIAABCEAAAj0SQNT2CJOsIAABCEAAAhCAAASGIYCoHYY7pUIAAhCAAAQgAAEI9EgAUdsjTLKCAAQgAAEIQAACEBiGAKJ2GO6UCgEIQAACEIAABCDQIwFEbY8wyQoCEIAABCAAAQhAYBgCiNphuFMqBCAAAQhAAAIQgECPBBC1PcIkKwhAAAIQgAAEIACBYQggaofhTqkQgAAEIAABCEAAAj0SQNT2CJOsIAABCEAAAhCAAASGIYCoHYY7pUIAAhCAAAQgAAEI9EgAUdsjTLKCAAQgAAEIQAACEBiGAKJ2GO6UCgEIQAACEIAABCDQIwFEbY8wyQoCEFgRAi9tybuX1+Tezmvyp0fH0OYkf5Fbv9yW/WPIfqmyPH1dXp2flweGtWLzjmL/eRv2fh5LBcCr7JTa0nM/bMw/kFfkI/n1zicdcj4jP3t9Sy58d7Nd+mQ8ivz5V2qu/tChWJL0SmDSojYZ4KdPFcAeRQZr8vI4U/1MA+TrV9+SzYs/Kp78/jPZfeOGHMTSJovSC/JE1TNVZZr0+TPfBy/XoO3ykBdkg37kkakT+IlsvndF1r1mPr67LW//8WHzxiNqm7Nq8OT61TfV+vmk9aS1piFqXYKI2tIRhahtMNkm/shkRW0o6rKetIWtL2hNZ7cUm4GgLc1H7QR/o3aCRvu2LCfJNhC0eWG5sA1fEOYZhO3E5zPNqyWQilrZm8vunezhbE5JW2FbW9YCD6yQpTZZq2d3HSPA+tUtef6L7dQK3oeIa5hHspaf+6bcILFAl/aWtGFbFi8vtVyefdByw7d4wZ1zWEzUdiz2WCy1qVY4e3952Hek13uyiYpa9eL6rbLGKCNtboHJBawRdpbFJhO6hTgNLZ/l5C2hagRzLjztfCIWog6itqijaUd2ZKKMHKatWtT+9J+vFy9tS7wf2C/z3ocTGUJg7AQiolZVOZlXa7fbHTseZ1NXRtTqtfqSHP2uwo2jDxHXMA9ErT2oEbWNpjiithGmk3po4qLWP8JSR/7mGN6yeBZCLyKGa3uiELUHe79QQlI71Zh8QlE7U9ag/bUt5RahHltE1FoWZ2OVLj9CLQR162PW2vbzAASWiUBc1G7Md5Qvnuue5J/2OBtCX3SaF9vOoWxo16IMSd0mMilXrwX589kaYvKvza/Y1AZ5SMzak7Zfr0O5u0WyFq7JvvEJ9E+DHLctk+dNeXDuSnLqlK57p1N/xNyDwKx9kfKc4ZKulbO/VVikou4Hng+jV+fHd9P65ZauPI/bMpsX7ifFeuidouk6Nlyfzdi5JVfyvkzzFedkLrb2Bqd8ERc59+RNcd37Rs5etnyME56e0cSru7FgmjoWBhDXbS6vY+RE0K6/X++6ce6vEOG4t05OGs8lr82KXdI+bx7nZZdsFIuNzD15PmKZru2jiKj1T0sdPnVjsYb9Mq22Q9R1oqJWoUwG2hmxPGoTvvngyq2XtvC0XhAx/9uyHipxCSgTkPmEbrhousVGFt+aBbibBXqI4UiZEDhuAhFRG/OPVXN688f3ZNf42frPREWtWm+sOZ2+2I5KfdkDq6DKc1O20xMWsz45+WkBcmjll22eDywx7rlSxMpI7hD49Tx3Pz1yDyya2XpzZMow6497muUf+xbuA3Wi1lqry9bcOlGbtfnIOoUya2wo0tQJlxHvkQtnXSy1pqzw3eK+b/zLbemm6ZHVnxlbKe5j5GMov4RUbjCxXWqSOs2KfMwGrTC8ZEJ4LrJrLlUFHOOW2oBRhH/lLG4wt5J3d+VcCsdVLiRL392xDa35rdiY2e4WTfoo1RrFJiuph5lPGoTPJ9cLVWMR94Oub4LpilptpXAsB+7OOzzG1wg7ilqV0t95irYIl9yGXEzUWi88q9fdxar4D3uXiZW26zQh3XQIRNyAGm1gvRdiVNT6N/LjVmHDMmYdzjlHL6K5+ZUJMOelaqywWRQFXeaGWptEWYeNZVa/uDcO308st/bf3bqYSAy+yC3WzcV8L4tTMvH7o0bUxv0oPVGQCwtzmhavd2dR61gHGzAqc4dwfk+ZyMd2nY1IKiy1UdcZL/+Y33I4p30hFRO1egwqdxEv8kTlWK5dPMK5FUa3aDb263xqg3qaeZy8q732NuojsykzojbuTuOUG90E+KwRtbXDpuSBaYpa23Ka+8tqq4k+G8t8UWsstc0FoPWSNDvL3Eoc981dRNQW4tk63vP9h5POdi26zdvTdSiRDgLLQCAmTs8UJzh2EyInMK41zgq5FfWrqxa1xaXPyDoRPSp180sE6mHk2N4RsnYavSb8XOTGhyLXt2T2qRZLlyyf1oghIOdh+fDHLrDka96il1HNemrlUylq0zrP9j3h57teRAVKKNr6FLXuJR+vLM3rxUP5fRAhJ123Z5+q4/j/8dxCTF8EgtV1YSmGcDGuysVeuMlzXDL84/iSU8mkzEabw6x2NXMrDJHVbOzXidp0zilXG3uTl8+hDn10xxO161lko9hS6Ny58d1HELV9vT0mKWoLfxbbWlpM3uTFJCaUl+f3GhWIFbg7iOPuorZog+vflAn2/LjGsnoYEd/XiCEfCCw1gVBoxoRMeuz42AqV18RS68eqrBG1hmNsE9ybqM1OkbQl8S//Iq9eF/mDElJiLsZ99awlrsoEot3h1RYkZ+3tHGM3ZmX149Qa1oja0s2N1W0xsWdO8Qp/zwaWWk8UdlkK0vdfeN8kd59osEEsa3OtqM02O8mm4Y5vde5L1Fr+6TFAjTZYWGq7jC2dZuKiNnZRzPg5WTvURaIf5KLWXJiwL4pZ0RecBSbbWbf2qQ3rrLPNL7Rk+f0vE5+3df5dhxHpILAsBMr96orLU7Fj32MUtQm68IUafnyh2RFs4NOn1yhlFbx1/7xyPfgwvSCmX6xK4O7bv5m1pDJ4fZOXbUMxXzFkwuPaalEbBsxP65D3aSMhkUXBaBnSKzx6jzHqcLQtqdXvKL+AnAHzfIGbWJdDsVdSR8cKX+Z+4IXEazX1y+dfW1Fr+wynVchOGmo+npC7a6gNnZ4XRTz5Dn2kQ845IrzEZcRm1GgsNplnrcCvzMOTFLVF9IFYPxbHWqXxZfNjlOI4rvz43j3md0ts536Qi9OKY5zSOquC0zr+ax7OLNZ63BBWZm7T0CiBEsHlCIXwZR6/DLSY+8HGfEtkx3wxrL2ozde5yEUxVwiZzXD8VMrxx8+sxv/w4vgWl+ZKxND8gny5Yz42YzP2xGXQJ+r/7ctK+v+jF2vKRK0RFWfErnP8oljdkW+al7uZMO4AvntD0ZBOotZsIGIXxfJLecZgoS6TVV0Uy3i5cZZdrjELpl9v826x3xGl6U67biZ2XOFkU7V2pyQ8Xjh+YnOrzv3AjBG7zfUXxUyf6TH5rHKXUBcmv7KiLvgby4Z95F8Uyy+XWXdq6uMul6w5ZZEcWN1LCUxU1Fq7NvsjNdFwKSUhTRJk5hi/Pm5tcFGswkoadz8oBHTZpa+8Fy3rcPpb/GWFqGXmQ8AnUGZFzObfqezGuOfzd7B3U+SyZaGKXhRr537grxnOhrOB+0HaMtvVyF8LPOFl3YbX/xN7+SYpgvXFFjDlVsginJd16z8LNeWEEHO6xK9/pA01F8VidT7Y25ajF63g9Y2sY9l7w3wgR6/hylPjmh3uLDKhuoratA9cf9iY0cENLaf6Ignz5gn0wEe1OjpFPnasr+sFYdD0Q1a+rtj1/Hg9Q1Do42yBazC3akWtVzf9T12/JFxmAyGYcvf9v2OW6QZ9FHGXqPyaadOxWMKeNb2awIRFbQ9dnw+qRS8/NKlLcwHdJDeegQAEILC6BHo6vtUC/5m/j+ejHKPvUP0ee1a+/g8dTWD0laWCEySAqK3qVHOBo82tzq6DxAho/GC7EiQdBCAAgZRAWTimlnz0kfxP//la8XXGlulX7nHN/eVv5W0T+3blANDgoQkgaofuAcqHAAQgAIHuBJTx4dWn/rv4Qpr5utZJGCO615qUEIDAMRBA1B4DVLKEAAQgAIETIhCLnYqgPSH4FAOBcRFA1I6rP6gNBCAAAQhAAAIQgEAHAojaDtBIAgEIQAACEIAABCAwLgKI2nH1B7WBAAQgAAEIQAACEOhAAFHbARpJIAABCEAAAhCAAATGRQBRO67+oDYQgAAEIAABCEAAAh0IIGo7QCMJBCAAAQhAAAIQgMC4CCBqx9Uf1AYCEIAABCAAAQhAoAMBRG0HaCSBAAQgAAEIQAACEBgXAUTtuPqD2kAAAhCAAAQgAAEIdCCAqO0AjSQQgAAEIAABCEAAAuMisJSi9vzTz42LIrWBAAQgAAEIQAACEBiUwFKK2kGJUTgEIAABCEAAAhCAwOgIIGpH1yVUCAIQgAAEIAABCECgLQFEbVtiPA8BCEAAAhCAAAQgMDoCiNrRdQkVggAEIAABCEAAAhBoSwBR25YYz0MAAhCAAAQgAAEIjI4AonZ0XUKFIAABCEAAAhCAAATaEkDUtiXG8xCAAAQgAAEIQAACoyOAqB1dl1AhCEAAAhCAAAQgAIG2BBC1bYnxPAQgAAEIQAACEIDA6AggakfXJVQIAhCAAAQgAAEIQKAtAURtW2I8DwEIQAACEIAABCAwOgKI2tF1CRWCAAQgAAEIQAACEGhLAFHblhjPQwACEIAABCAAAQiMjgCidnRdQoUgAAEIQAACEIAABNoSQNS2JcbzEIAABIYm8NKWvHtZ5NavtmX/h6Erc3Llb8w/kFfkI/n1zidJocm/Z3dl940bctC0GordO4rdn0fN7oz87Ddbcvb+trz9x4fxlpkx8Es1Bpq2necgMHECkxa1yYJ3+lTRhY9u5oth8mOyKJwJu9h/rsEgWL/6lmxe/FHx5PeflSy0P5HN967IupXnwd5cdu80KIRHIACBHgiEc1A6zPkeKtI9C0QtohZR233+kHKyBCYragNBa7rQfnn1JGoDQWvK8oVtSXmI2snOLxo2NgKnr8ur8xfkyNlIKpE7F9nNrH9jq3K0Poja7t3UyFKbbnxkMIMDltruHUzKVSYwUVGrFqTfKmuoMtI+vpsd3+SC8qHcyo5rcjG6kJUmXXwuaCOtySd7cT4h38u9ndfkT4/0ELOsQ6VW3FUeirQdAsdPIJnza7fdE5vjL7b/EhC13ZkiaruzIyUERk5g4qLWEpW50AxFbS58O3VWIWoP9n6h3Ai0g5sR1UX5hTW3KL9TcSSCAAQ6E0jn4WG+sY1lZPw2dw8vWS5FkXnrn7zYm9VkvTkvD/JNrSopeX7N2uiK1InsjfmOcqEqapmf6hhRu3Oo/EpfkCeyR4o1yKTxXS3sjbZau15XfpsPbL/NdO2a/c36LWnLmuwb3818Lc3KsI0Cpt1738jZy7pehpu1+U+S2fXwe6H82ahPreVjq3NyT85UOUldrL4wojZgl7mBRU7UQq5FnUv7SD9SWpZ5V2T5eEwf370pD85daeZTW9YOU8Wq/gp4WYYgiY0PnWlmxf77Q1l/Vvl1ez6961fflM1z99v5OXee0SSEgEtgoqLWLCZnxPKoTVpuH/VH3Qa6WG39RSNjbIvlfOFT+d+SK8WLCqstcxICJ0jACKZyUWVcl4r5m6U5Knzy07VDHIGapnuUXd4KBYFZA/x8yy4DBeJACaRN2U79743wstaP5PmLR8XlsWxdEnNalYksfY/ArIOxMt5R/3/KyVe19dw3qUgJxHrazgvfZWzMWuita0nbxea3Jc9/sZ2dYrndX/VsnagNNy1G1Fv9nQjNSBudzU5D9wPV3s0f35Ndc5nL37hEy4r3k+0SE46VyBSJjgFv01bXX1qg2q43uXtOKrpjAjVhnIyHb+WngYtGmRA+wSlOUStNYLqiNttlXnjS6t/YQmtZQfInOwhbf7cu2kKR3671LQ/emOtQ3kqPWhoPgQUJFBvaUNxGb9Q7l3LKBE9q5ZSPLUGwdidzddBpLikXJWVJFOP+kP52ZFtzrXb5As5pcsTqa06ITPm+ODTpnd+NFTZbq3SZG7qSal00lln9/MZharm1/57Xxz7OX4/5LDfwD80zq362WtSW9Isv7JL6rsnnDnc/bUNRG4xDL11ZWdY4ifdTA2ZlY8ASmkl/Hr7vRlCovGDmlRsTxVZUhuCkwRtPC05TkkOgNYFpilrbcpoJxtSKoRVu2fG/LTxtQVrHNOIra3bn+RGbl3d2XFMI4Tbl1dWH/4cABJoSMOLWPVVxw0YledlCwD+O94RoLiKM2NPzXae5LvKHGyLXzFG+zvPFw/Jj2qhvflZY1KfWFtWnE1//2aeRyCpOuV6a138u8l8filw3aW3hXbU5z9awRNR6bhc5Px1ppsFaF7n/UAjySEgv435Q1i9RUeuH9FpA1EZO6mw3kTB8WJN+aipq/eN/ux2ZFd027ORj1X4PhtFA/PmQj+moK0rhmlLnTtN0XvIcBLoSmKSodQRsbi0tJm5ptIFAjDbAmi/Aoa+athKbxcF2PzAxFh0/21HHTGzAgUcgsKwEPIEYtZB2EbWZb718PJe/PvWWXJMPlcVMcrH59TOFBbQSXWyN6U3UZrFetTD8y7+kwlu5GYi5UPfVs5bwToVWVCibBsR8ia3GtVnzYvcQKi21A4ja1OXkcXAhOI+aYFux83jCJytqZ/ue/26kP4p3YkRM6zaozdfvk3GhjEP56YPOyB4T+u9qU3TDXI5e1gWBei8zgYmL2thFMeNXqybg/IJ8uWOCdne01FqXCsKLYoWojS/Q2SUQ/GqXeQ5R92Un4AmxWlFrLsoE4Z5c9wONJT3+/Uhd+lGuB9nLXq8F15QLgv1bPUJPbNSK2h8SVwHbj7Wwdnq/Z6Llz/fPK9cDLbxVsP/Msrxv/5a0J55nXv8aUZs+F3Iqb79rQa0XtX64NpVz1M+1D0utaYdtDY+5H0TKyt0PUov6BctfO2ek3Ahmtj+0DynqRlDNy80iZg2O/abbqdxkfmdb8K2cdD2e+buzKWr8IYz6gc8TEGhFYJKitog+EGNRdhu3eLYQp8XxTXmEhKojuZKQXl61iFPbaszyMAQ6E1i/Gl5QSoTarPhYSr2oNTfsIxfF/K9bRS7zFB99qY6EsjHfEtkxX4tqL2oTYaoiI4QXxdwIDLFoLXYIQmd9ytrjRAOwL0tFRa1vQKgStZFnPR/R0W9kIwAAGPtJREFU4ItizhfGtKEgdrTuXxSrE7UNjv8j0QHMiVxz9wNlvs2ZFuK4+UWxKveDVNDrS3H/yCPzqN+s/gov5aUfEfLfd/r089rakcjsMLHku6JVC+ln5ejumpw1m6LOM5SEEFiMwERFrYYS8SfyLmSFl7v8SyPp4rt+qir8TNoBQV5R66svgOvzXax7SQ0BCNgEmkQ8aSJqdZ5BXtELn6nlzLW4Za5QNRdE/Q/IOEKjgaU2aXfg7xkX0rHLcemaFg9llkQPyMFafrJlotbE8s7SlIfICo0Etqiui34QrsWqbknIq0hIL8flK3IxLHoK580nj+/B3k2Ry9ZHG2rdDzKfBKssXcLB3rYcvdjlM7nxdgT9lYfhcv1pS0OJxTZIForSscLyA4ETJjBhUdsDyXzBIrZsDzTJAgIQgMDJE2jkEnHy1ZpSibVuKVNqLG0ZNQFEbVX3mItjhNwa9SCmchCAAATKCBRxVf1jc5j1Q6Br+LN+SicXCNgEELWMBwhAAAIQmASBjflb8tRfrNv3EX/VSTR0RI1g0zCizqAqgqhlEEAAAhCAwCQIxHymuYh7TF2Le94xgSXbRQggahehR1oIQAACEIAABCAAgVEQQNSOohuoBAQgAAEIQAACEIDAIgQQtYvQIy0EIAABCEAAAhCAwCgIIGpH0Q1UAgIQgAAEIAABCEBgEQKI2kXokRYCEIAABCAAAQhAYBQEELWj6AYqAQEIQAACEIAABCCwCAFE7SL0SAsBCEAAAhCAAAQgMAoCiNpRdAOVgAAEIAABCEAAAhBYhACidhF6pIUABCAAAQhAAAIQGAUBRO0ouoFKQAACEIAABCAAAQgsQmApRe35p59bpM2khQAEIAABCEAAAhCYGIGlFLUT6wOaAwEIQAACEIAABCCwIAFE7YIASQ4BCEAAAhCAAAQgMDwBRO3wfUANIAABCEAAAhCAAAQWJICoXRAgySEAAQhAAAIQgAAEhieAqB2+D6gBBCAAAQhAAAIQgMCCBBC1CwIkOQQgAAEIQAACEIDA8AQQtcP3ATWAAAQgAAEIQAACEFiQAKJ2QYAkhwAEIAABCEAAAhAYngCidvg+oAYQgAAEIAABCEAAAgsSQNQuCJDkEIAABCAAAQhAAALDE0DUDt8H1AACEIAABCAAAQhAYEECiNoFAZIcAhCAAAQgAAEIQGB4Aoja4fuAGkAAAhCAAAQgAAEILEgAUbsgQJJDAAIQgAAEIAABCAxPAFE7fB9QAwhAYEQENuYfyCvykfx655NhanX6urw6Py8Pdl6TPz0apgrLU+oZ+dnrW3L2wba8/ceHIgm7F+Roby67d5q3YmO+o/r85nB93ryqx/yk4vkbxfN+xvOYSyN7CPRNYNKiNnk5nT6VM3t815uoL23Ju5fPhEwfNVjcsrQHLRfPvjuQ/CAAgYYEMsHzRNnj2bxH1DbkeVKPRfqtWMsRtf12A6K2X57kdtIEJipq04XuwpMhTkfYdhG1yQK7Jvs7h7KRWFNuy2x+SY6wqpz02KU8CCxA4Cey+d4VkcimdDVErWr/b1X7P/6Fsmj+sADHY06arNFrcs9eX9UavPnje7KrLbPiidqO1WlkqVV1eeeyyJ9/tS37I0bWEUGW7ORE7frVt2Tz3Dey+8YNOVis0qSGQE5gmqI2WXzOiLbRHuyli/b61Tdl86JWuQ/l1i/VoqT+lkyqiz8SaWKZzZDlabxBFFiBGWQQgMCICSBql0HUarG5cVh1FI6o7XeSIWr75UluJ01gkqLWEbBmV20dYRmXASNQ2wvSdOJfUHpYvv+MneZJj1rKg8DCBOpF7e7hpXTTm/wpNsOJdVDN/9mnrt9msu6cu5+vB8biW55PmnOxXul/fS/39r6Rs5d9n9q0vuum3d66Y8q6JVeUy5WIWdMSC6T6t/mTrH0Sul2ZzX9YH/WLt+k3Vk2nrC8upH7ASd1fkNTFI2PmnIip3yxLZ9r2I+c3u2uTsmZVa2zM/aCGnWpPUnfLh9a0qayvfFe2pG0VFtvA+OEbTozVd0/kFe0CV/Ie8ftVs0n7Vop3UP6btlxbfyzjTvJrrAzPtePx3Zvy4NyVwKfWbb8ao5blPDoelBXdHdfFmDTzJ3l/xsaz727SwujkAuBfq0hg4qI2ZqktJlfU6tpgApkXxcHdz2R2US3gDdKs4uCizRAYL4EaUat88R2/Tb2JPTK+9i1EbWU+5rTo0BJIqVvA+ilbOIR19cWeER2uOPWOd5XI2ZTt7AJV3P0gzedRfpqVCxAphGW+/mWnYEkfGyGSC6fYxj/7LedoBH25qBUxYt7eVNijqk7Upuln1n2KXGxZ67ZpU3mfqzIbuh+keXmbIO0Od8oS50Zw1rw7gn51TiGzTVXERSN9t4knPrO+9Qw99qW6kIMoNzvv4qRXXjEe7E2e4j4X2TWXLSMX+KLuB8ElycyV8LsG91zGu9hQsxMkMElRmyyEyYshTrLMipE/XbnQnJH1ly7ItWe+lbfVhN2YvyVPffWhfHnnIX5BJzhwKQoCixGoEbWzu+4JTPIil0zstRC1lfmYOnh+rd6LPXn5r912b+Z7zyTCwyur2k80ImrLoi4EZUWsp7G0MX/YhsLQ79vC4uxbSKtFbZnfpi/UohZhp88bitqGDFOBvCaf19zFCP27YyLPdxkoGVfZe9H4UcfHh5eXuUPiWKXdZ+qt6bo3QzeRWN/o9m4cvp9GsjB/zJjJ3AYXm/eknjqBiYpay3KQ9KA50kuPxeIRCyzLQs3R0tQHBe2DwPQJ1LsfOCG9uopaPzSYnU9UMJi1qzhC910Iir4prLnRy235Ma57XJymj4haLR5ePJTfBxd3XBEfFUOlotZsBLJadxS1ps2hRbpa1Jb55EZFrR/Sq4uo1WkUw/DyU1rP2X62gWko1MpEbR7CLAHTRIimBAvRmLov+C40QV6+C4O1MDjGoWg4tNC4ZLv6haK2/IK36/4z/dWJFnYnMF1R6zPJ/bpiC7y94OoLZhXPdGdNSghAYDQElkvUVl+WihwR25yja99yilrdLNd3GVF77KI2utEpBlhsk2NcPAp3mCaWWk/4j2atoCLLRGCiola5CCifpgMTuNx2PM9dC9QEml+QL3dMOBEstcs0cKkrBBYjsLio9QPU+y4AUetpYKnVHwrw3A+8o+kmoY/qw5BFjqj9kF4Nj86HtNQmfe5Ye+tFbXjRLDzCj7api6W2IcO8DTVH6p0stZkfsvjjyrHOn04vmln+zel88nyQG3wIJGQXi0jRRNTWbM4Wm/CkXhECExW1ZT614Q1m5wZm1un2ZYsVGQc0EwIrRmARUWtd8DKixBzTWjfMa0WtIp5fKsp9FiMXxbJNuTgfj3Ev4sTK2phvieyk4QsDa15JfNfSi2KW+OlT1NZHP7DbkLVDX7rKLw7VXBSLsCu9KFbnftBA4Okall4Usy87Haf7QWLNLrkoZvtdZxZ82x0vemHOv+SWtLHol9h48MejYR7GiY+5p5yRf3iXEIu4xCu2TNHc1gRWR9RGwpmEvmq4HbQeQSSAwFISWEzUBmGJ1AlQEg7KCibfRNSmIsj+8qHaeOcfdrE+kxt8VcsPqxR+2tdf32JfVPTjeYf1sUMxpR19sqLWDUmmy3fbURf9QCUIwlYpob+2FQ3pVe5Hbdpu+qo6pFcz9upDDsdiqU3r6ofUisZjd8Kt6fsm23L0ov+Z3NDX1e6D+IUz17AUDxUWi5ChKh748VazXsrlh0ofG4GJitpj40XGEIAABCCw5ATq3TWWvIFUHwIrSgBRu6IdT7MhAAEIrCaBJflE8Gp2Dq2GwEIEELUL4SMxBCAAAQiMloB2PXg5jSme/smO0u0PIYy28lQMAhBoSwBR25YYz0MAAhCAwJIQ8D4vrGvNp82XpO+oJgTaE0DUtmdGCghAAAIQgAAEIACBkRFA1I6sQ6gOBCAAAQhAAAIQgEB7Aoja9sxIAQEIQAACEIAABCAwMgKI2pF1CNWBAAQgAAEIQAACEGhPAFHbnhkpIAABCEAAAhCAAARGRgBRO7IOoToQgAAEIAABCEAAAu0JIGrbMyMFBCAAAQhAAAIQgMDICCBqR9YhVAcCEIAABCAAAQhAoD0BRG17ZqSAAAQgAAEIQAACEBgZAUTtyDqE6kAAAhCAAAQgAAEItCewlKL2/NPPtW8pKSAAAQhAAAIQgAAEJktgKUXtZHuDhkEAAhCAAAQgAAEIdCKAqO2EjUQQgAAEIAABCEAAAmMigKgdU29QFwhAAAIQgAAEIACBTgQQtZ2wkQgCEIAABCAAAQhAYEwEELVj6g3qAgEIQAACEIAABCDQiQCithM2EkEAAhCAAAQgAAEIjIkAonZMvUFdIAABCEAAAhCAAAQ6EUDUdsJGIghAAAIQgAAEIACBMRFA1I6pN6gLBCAAAQhAAAIQgEAnAojaTthIBAEIQAACEIAABCAwJgKI2jH1BnWBAAQgAAEIQAACEOhEAFHbCRuJIAABCEAAAhCAAATGRABRO6beoC4QgAAEIAABCEAAAp0IIGo7YSMRBCAAAQhAAAIQgMCYCCBqx9Qb1AUCEBicwMb8A3lFPpJf73wyTF1OX5dX5+flwc5r8qdHw1RhaUp9aUveubwmn1eyOiM/+82WnL2/LW//8WEPTVP5va7ye2DyS/O/cHSz1ZgZfJw1IVE7Fvtm26RSPTyjxs27l0Vu/XJb9rtml7B5QY72fiG7d34QScaiyJ9/pfJU/+TPMAQmLWqTReP0qZzs47sli1oywM9YPfBQbrUcmOtX35LNiz8q8ngUWeCySfBE/pQqp8mkyup3sDdXk2eYgUKpEFh6AsH881qUzdnBxUatkFj6nuivAYja/ljGcqodi4haRO3xDsG2uU9U1KY76QtPhjh8Ybsx31HC13+unaiN56HytIVtIJxNmRXCNllQ1mR/51A2EsvNbZnNL8kRFpy245znIeAR+IlsvndFJLJRXA1Rq9r/W9X+jzMr02TGR6xf+xZevqW2G7xG42xo6x+itnnnDt1XzWs66SenKWqTwXVGtI32IDsaWL/6prKkapVriUhLaJZaceu637L+5Hnk5X8v9xIBmh1PaUPu95/J7hs35EDSxXdd/VRWdlFntxKd61rXFv4fAitDAFGLqO062BG1Bbm+Nwxd+6Rluj7cD/wiEbUtO+F4Hp+kqHUErHEjsMRneoxvCc2Yq0BT3rkwNgJWJ0ytIOtKVacC9F+jAja38OZCN1ZoTBA3rRzPQQACcQL1onb38JLlUmSfqKRzcvap6w6UrDvn7mebVlGnK6lvbnk+ac3czataR/a+kbOXfZ/aYhOcJPLWDFPWLbmSnDyZja9/ipSsfeK7WxWb/7A+6hdvfUzylJvilPXFhdQPOKn7C5K6WGXMnFOqqlOwmEBK2z2zXcfMCZZe21+0/BjV3103Mt2uYq3XPrX7a1vFyVzluquq77ur5M/HfWpdn12vvxTDhJfiZny168ZHeAJYxc4rT7O3XOjqyjJzxHWjKxuL9owq+qyOrW+k8d3pwrGanSKUWYszYfq1Mho9bXFNa1ez8TCiNjkFNePVnQc6F9+F0amzXy9E7SheNhMXtTFLbSg0D/ZuilxOrab6TytLaMzaa1mK0xeC5KI2ZqlNFv8SH14z0Q/ufiazi2ryLSLARzHkqAQExkCgRtQqX/xiHfAvArUQtZX5aEGrffEPrflvNsTeJtlzlUjWhZk59SlevuZkKhWnKu9z3+QiW19k2ZTtzC8/7n6QvsQfWb7+WdvFLit12bLLygWgLfz05SnndKr+QlWszolQtQSos3kIhES5+4GuS1HntP2zv5VdHvPzUXWfX5Avd/QpW52oDYV4Luis9dsIpvJxpjqxoVBav7olz3+xnV8sLBsfVWXlYzG/5xEbi/7cLYwuheAL2fobPjNejoz7jxKImz++J7vmIp/jKx0TqNYG6J//ll76st+hdW4T5r3tj6uLR0U+kTq9qy4lpqevZtNjbT4b9tUYVr8p12GSota2lMY6L5nYiWWh2KH5zzkLduUIsCypseeyRSy4SOY8WyZqz8j6Sxfk2jPfytvqJvbG/C156qsP5cs7D9XCyh8IQKA7gRpRO7tbiEFdiHNc2ULUVuZj6uD5tXov5GTtWLvt3qz3nkkEkleWsajGozhERG2ZEAjKcgV10gextAkzSwRkHCtviBsrbCasdBs21KZflIjez3/7QDYO308jGbQRtV50gkBo2YOpUhRVi9pAmGf5+j60sT5zx1lzURvMA49LfVkl86FOHGqBH4n84LLVY03dBfmdG82jzfiMi2IjKM18LOZR8vzanfJoFLGxmZ2wlvuZe4yw1HZffo8x5URFrVlkjWg1xyjpv5Md5f+k4TiSY7J891y4DfhHbtV94B792JZf2+rrHK+Y4yh9Sa3uGOwYBwBZQ2A1CdS7HzhisKuo9UOD2fnYx+h2CKCYiAwus+peK6y50UtH+fG5bfU1vR0RtVoIvXgov098/u0/roiPipFSUeuFTaq1Ztn9osv9uciND0WuG3cPTyC1ELV+SK9KUauan6/XwelYtahNhPhhaAGOitqq8dFkE2B1U2g4KYwl0fERG4t+NJ6GoraSre/GYQ8tm23kOcey/l5xSdrf6Ln/Tvtntl9xCTLqU1u20XONX7lFGlE7ylfHdEWtjzvwfS2EaHFsYkVNWOSY3/HfLZtYPfn0jnJYUSkIjJ3AconamEiyCVfepK/w+3esUqMQtZmY1D6Sf/kXefW6yB+UyBZjrf7qWVd4H6OoTfnG1umxidrsXWYbR2KW2iYbrGMTtSqKT0WYzHQDEd5LscdnsVmQ0Kfd3iCuK4NVNm5KTzQbiNrUPeRx4W6QXe7OI6Ygake5yE9U1Kpj+9PqiN4ELrd3gLlYjS1WhaW2uV+tV5Z1SczxAzt9RtWnCPxdWG1jVpRRjhUqBYEJEVhc1PrWKf+It5l1zArebug6/oQR39hIL9SHh/IvYS3ofuBfzOnNUqsapwWHshjfun9euR58mLoZ6PyVUNm3f4taMst9attaah3MjkisF7W2v3MujnWYye/Ci2LlJwIpi9qA/jGB1knU6rHoxUL3xmI49GKX+7LLj/mlybj/dpFXrM/iJwl6XOyqPc41HerSE+B6Djz91b/LX596Q67Jf1Z/aKNW1KpLokHIO9wPluEFMFFRa7kROL3gxYTNLRh+V5ljm8JyWy5yy3xqXbFa5lPbXDwvw3CijhBYFgKLiFrrgpd5sSYvfxVG0LKW1YpahSrd3No+9ZHLOdmmXJyPx6jn5iK72VfPYmVtzLdEdswXk3zxEb8dXnpRzPJHPV73Az1+zClaeFlOX+Z17jsEoi8mspoIL2/cRi8uma9F1VwUi/RX6UWxOveD2uN/Ve/gGcOvhfuBPRY7XBSr2zCE40rPIXO5Lewfc4nOvduSuqPMjkRmh9lmx+42PRaeOZTPZ+eVy0rN1/hqRe1p76txhTsK7gfjXuNXR9SW+a36fjzOc5EXTNCfMVEbXvyKiVq+EDbuyUHtpkxgMVHrHEtrTOoEKAndZUUbaCJqdVI3bJBaO/KPrVgv5sDf0N00x0Wt+2GZYANthLgnFOu+xHj8ojYTEFZ0h5STvwEosWRaxgo/pJf9mdz6i2K2L6W9ptdFPzBCs0iv2SchryIhvSottc74KI+S475f1HN7Iq9YEQGaj0V7zJSMRWdZaL5h8MeVc2/FG9/mXoqYT9BmZabtFMslwK5M9r4+aPC54lpRq5zcS+uUWbNxPxjlC2KiorYn1vmgbvg5256KJRsIQAACEJgWgXoXkWm19+RbU+fmcPI1osSTJ4CorWJuLBmLXBo7+T6lRAhAAAIQGBUBBNexd0cT/+NjrwQFDE0AUTt0D1A+BCAAAQhMh4A+4Xs5jS2e/snuZpwqPmAxncaOpSVxH/Gx1I56nBwBRO3JsaYkCEAAAhCYPAE3bnnSXGKRH1uv5/7EnKgeG+NlyhhRu0y9RV0hAAEIQAACEIAABKIEELUMDAhAAAIQgAAEIACBpSeAqF36LqQBEIAABCAAAQhAAAKIWsYABCAAAQhAAAIQgMDSE0DULn0X0gAIQAACEIAABCAAAUQtYwACEIAABCAAAQhAYOkJIGqXvgtpAAQgAAEIQAACEIAAopYxAAEIQAACEIAABCCw9AQQtUvfhTQAAhCAAAQgAAEIQABRyxiAAAQgAAEIQAACEFh6Akspas8//dzSg6cBEIAABCAAAQhAAAL9EVhKUdtf88kJAhCAAAQgAAEIQGAKBBC1U+hF2gABCEAAAhCAAARWnACidsUHAM2HAAQgAAEIQAACUyCAqJ1CL9IGCEAAAhCAAAQgsOIEELUrPgBoPgQgAAEIQAACEJgCAUTtFHqRNkAAAhCAAAQgAIEVJ4CoXfEBQPMhAAEIQAACEIDAFAggaqfQi7QBAhCAAAQgAAEIrDgBRO2KDwCaDwEIQAACEIAABKZAAFE7hV6kDRCAAAQgAAEIQGDFCSBqV3wA0HwIQAACEIAABCAwBQL/H3ZvJhlFv9EtAAAAAElFTkSuQmCC;" vertex="1" parent="10z6Ij_HkIURz7MboXAf-1">
          <mxGeometry x="1350" y="1163.5" width="456.6" height="423" as="geometry" />
        </mxCell>
      </root>
    </mxGraphModel>
  </diagram>
</mxfile>
